<svg width="1210" height="84" viewBox="0 0 1210 84" fill="none" xmlns="http://www.w3.org/2000/svg">
<rect x="384" y="67.9995" width="437" height="4" fill="#F2F2F2"/>
<rect x="843" y="41.9995" width="325" height="4" fill="#F2F2F2"/>
<rect x="846.107" y="44.3154" width="37.1356" height="4" transform="rotate(132.661 846.107 44.3154)" fill="#F2F2F2"/>
<rect x="384.165" y="72.019" width="37.1356" height="4" transform="rotate(-132.66 384.165 72.019)" fill="#F2F2F2"/>
<rect x="1183.53" y="28.7104" width="23" height="4" transform="rotate(132.661 1183.53 28.7104)" fill="#F2F2F2"/>
<rect x="41.5859" y="46.624" width="23" height="4" transform="rotate(-132.66 41.5859 46.624)" fill="#F2F2F2"/>
<rect x="40" y="41.9995" width="322" height="4" fill="#F2F2F2"/>
<rect x="392.486" y="55.9995" width="426.608" height="4" fill="#0092F4" fill-opacity="0.7"/>
<rect x="841" y="30" width="324" height="4" fill="#0092F4" fill-opacity="0.7"/>
<rect width="36.7327" height="3.94884" transform="matrix(-0.668801 0.743441 -0.727187 -0.686439 843.603 32.3154)" fill="#0092F4" fill-opacity="0.7"/>
<rect width="36.7327" height="3.94884" transform="matrix(-0.668787 -0.743454 0.7272 -0.686426 391.566 61.0195)" fill="#0092F4" fill-opacity="0.7"/>
<rect width="22.7505" height="3.94884" transform="matrix(-0.668801 0.743441 -0.727187 -0.686439 1180.09 16.7104)" fill="#0092F4" fill-opacity="0.7"/>
<rect width="19.1969" height="3.94884" transform="matrix(-0.668787 -0.743454 0.7272 -0.686426 47.8386 34.9824)" fill="#0092F4" fill-opacity="0.7"/>
<rect x="48" y="30" width="323" height="4" fill="#0092F4" fill-opacity="0.7"/>
<rect x="379.022" y="77.9995" width="444.351" height="4" fill="#0092F4" fill-opacity="0.7"/>
<rect x="846" y="52" width="328" height="4" fill="#0092F4" fill-opacity="0.7"/>
<rect width="37.4238" height="4.03653" transform="matrix(-0.683754 0.729712 -0.740979 -0.671528 849.58 54.7104)" fill="#0092F4" fill-opacity="0.7"/>
<rect width="37.4237" height="4.03653" transform="matrix(-0.68374 -0.729725 0.740992 -0.671514 377.588 83.0195)" fill="#0092F4" fill-opacity="0.7"/>
<rect width="23.1785" height="4.03653" transform="matrix(-0.683754 0.729712 -0.740979 -0.671528 1189.84 37.7104)" fill="#0092F4" fill-opacity="0.7"/>
<rect width="23.1785" height="4.03653" transform="matrix(-0.68374 -0.729725 0.740992 -0.671514 34.8481 54.6245)" fill="#0092F4" fill-opacity="0.7"/>
<rect x="35" y="52" width="322" height="4" fill="#0092F4" fill-opacity="0.7"/>
<circle cx="26" cy="26" r="25.5" stroke="#EBEBEB"/>
<circle cx="26" cy="26" r="19" fill="#D9D9D9"/>
<circle cx="1184" cy="26" r="25.5" stroke="#EBEBEB"/>
<circle cx="1184" cy="26" r="19" fill="#D9D9D9"/>
</svg>
