<svg width="366" height="530" viewBox="0 0 366 530" fill="none" xmlns="http://www.w3.org/2000/svg">
<path d="M305 526H47.0816L22.5918 489.169V422.873L3 393.408V225.214V57.0188L47.0816 3H299.327L311.571 15.277L336.061 39.831V155.235L363 182.244V479.347L303 526" stroke="#0092F4" stroke-width="3"/>
<path d="M310 60L284.5 35H67.5L35.5 74V90H310V60Z" stroke="#0092F4" stroke-opacity="0.5"/>
<path d="M300.429 31.5493L289.34 20H60.9184L21 70.8169V387.268L38.7415 414.986V477.352L60.9184 512H292.667L347 468.113V188.62L322.605 163.211V54.6479L300.429 31.5493Z" fill="#0092F4" fill-opacity="0.1"/>
<path d="M363.5 488L311 529.5" stroke="#0092F4"/>
<path d="M361 498L326 526" stroke="#0092F4"/>
<path d="M360 508L340 524" stroke="#0092F4"/>
<path d="M349 168L363 182V272.5V332" stroke="#0092F4" stroke-width="6"/>
<path d="M3 345.5V393L22.5 422.5V488.5" stroke="#0092F4" stroke-width="6"/>
<path fill-rule="evenodd" clip-rule="evenodd" d="M42.7097 0.761719L2.25108 1.8559L1.00024 51L42.7097 0.761719ZM33.8413 1.13283L1.28483 41.1669L1.16733 46.1964L38.1103 1.02562L33.8413 1.13283Z" fill="#0092F4"/>
<path d="M67.276 71V55.16H81.862V58.086H70.202V61.606H79.574V64.554H70.202V68.074H81.862V71H67.276ZM84.1198 71V58.218C84.1198 57.6607 84.2591 57.1547 84.5378 56.7C84.8164 56.2307 85.1831 55.8567 85.6378 55.578C86.1071 55.2993 86.6204 55.16 87.1778 55.16H96.8798C97.4371 55.16 97.9504 55.2993 98.4198 55.578C98.8891 55.8567 99.2631 56.2307 99.5418 56.7C99.8204 57.1547 99.9598 57.6607 99.9598 58.218V71H97.0338V65.676H87.0238V71H84.1198ZM87.0238 62.772H97.0338V58.35C97.0338 58.2767 97.0044 58.218 96.9458 58.174C96.8871 58.1153 96.8211 58.086 96.7478 58.086H87.2878C87.2144 58.086 87.1484 58.1153 87.0898 58.174C87.0458 58.218 87.0238 58.2767 87.0238 58.35V62.772ZM115.094 71L110.32 65.302H114.126L118.262 70.186V71H115.094ZM102.466 71V55.182H115.226C115.784 55.182 116.297 55.3213 116.766 55.6C117.236 55.8787 117.61 56.2527 117.888 56.722C118.167 57.1767 118.306 57.6827 118.306 58.24V62.508C118.306 63.0653 118.167 63.5787 117.888 64.048C117.61 64.5173 117.236 64.8913 116.766 65.17C116.297 65.434 115.784 65.566 115.226 65.566L105.37 65.588V71H102.466ZM105.634 62.64H115.094C115.168 62.64 115.234 62.618 115.292 62.574C115.351 62.53 115.38 62.4713 115.38 62.398V58.35C115.38 58.2767 115.351 58.218 115.292 58.174C115.234 58.1153 115.168 58.086 115.094 58.086H105.634C105.561 58.086 105.495 58.1153 105.436 58.174C105.392 58.218 105.37 58.2767 105.37 58.35V62.398C105.37 62.4713 105.392 62.53 105.436 62.574C105.495 62.618 105.561 62.64 105.634 62.64ZM126.297 71V58.086H119.829V55.16H135.669V58.086H129.223V71H126.297ZM137.336 71V55.16H140.24V61.606H150.624V55.16H153.528V71H150.624V64.554H140.24V71H137.336ZM162.818 65.94V63.058H171.816V65.94H162.818ZM180.841 71V55.182H193.601C194.159 55.182 194.672 55.3213 195.141 55.6C195.611 55.8787 195.985 56.2527 196.263 56.722C196.542 57.1767 196.681 57.6827 196.681 58.24V62.508C196.681 63.0653 196.542 63.5787 196.263 64.048C195.985 64.5173 195.611 64.8913 195.141 65.17C194.672 65.434 194.159 65.566 193.601 65.566L183.745 65.588V71H180.841ZM184.009 62.64H193.469C193.543 62.64 193.609 62.618 193.667 62.574C193.726 62.53 193.755 62.4713 193.755 62.398V58.35C193.755 58.2767 193.726 58.218 193.667 58.174C193.609 58.1153 193.543 58.086 193.469 58.086H184.009C183.936 58.086 183.87 58.1153 183.811 58.174C183.767 58.218 183.745 58.2767 183.745 58.35V62.398C183.745 62.4713 183.767 62.53 183.811 62.574C183.87 62.618 183.936 62.64 184.009 62.64ZM198.352 71V58.218C198.352 57.6607 198.492 57.1547 198.77 56.7C199.049 56.2307 199.416 55.8567 199.87 55.578C200.34 55.2993 200.853 55.16 201.41 55.16H211.112C211.67 55.16 212.183 55.2993 212.652 55.578C213.122 55.8567 213.496 56.2307 213.774 56.7C214.053 57.1547 214.192 57.6607 214.192 58.218V71H211.266V65.676H201.256V71H198.352ZM201.256 62.772H211.266V58.35C211.266 58.2767 211.237 58.218 211.178 58.174C211.12 58.1153 211.054 58.086 210.98 58.086H201.52C201.447 58.086 201.381 58.1153 201.322 58.174C201.278 58.218 201.256 58.2767 201.256 58.35V62.772ZM216.699 71V55.16H219.889L229.613 66.732V55.16H232.539V71H229.349L219.603 59.406V71H216.699ZM238.061 71C237.504 71 236.991 70.8607 236.521 70.582C236.067 70.3033 235.7 69.9367 235.421 69.482C235.143 69.0127 235.003 68.4993 235.003 67.942V58.218C235.003 57.6607 235.143 57.1547 235.421 56.7C235.7 56.2307 236.067 55.8567 236.521 55.578C236.991 55.2993 237.504 55.16 238.061 55.16H247.763C248.321 55.16 248.834 55.2993 249.303 55.578C249.773 55.8567 250.147 56.2307 250.425 56.7C250.704 57.1547 250.843 57.6607 250.843 58.218V59.45H247.917V58.35C247.917 58.2767 247.888 58.218 247.829 58.174C247.771 58.1153 247.705 58.086 247.631 58.086H238.171C238.098 58.086 238.032 58.1153 237.973 58.174C237.929 58.218 237.907 58.2767 237.907 58.35V67.81C237.907 67.8833 237.929 67.9493 237.973 68.008C238.032 68.052 238.098 68.074 238.171 68.074H247.631C247.705 68.074 247.771 68.052 247.829 68.008C247.888 67.9493 247.917 67.8833 247.917 67.81V64.95H244.331V62.024H250.843V67.942C250.843 68.4993 250.704 69.0127 250.425 69.482C250.147 69.9367 249.773 70.3033 249.303 70.582C248.834 70.8607 248.321 71 247.763 71H238.061ZM253.309 71V55.16H267.895V58.086H256.235V61.606H265.607V64.554H256.235V68.074H267.895V71H253.309ZM270.153 71V58.218C270.153 57.6607 270.292 57.1547 270.571 56.7C270.85 56.2307 271.216 55.8567 271.671 55.578C272.14 55.2993 272.654 55.16 273.211 55.16H282.913C283.47 55.16 283.984 55.2993 284.453 55.578C284.922 55.8567 285.296 56.2307 285.575 56.7C285.854 57.1547 285.993 57.6607 285.993 58.218V71H283.067V65.676H273.057V71H270.153ZM273.057 62.772H283.067V58.35C283.067 58.2767 283.038 58.218 282.979 58.174C282.92 58.1153 282.854 58.086 282.781 58.086H273.321C273.248 58.086 273.182 58.1153 273.123 58.174C273.079 58.218 273.057 58.2767 273.057 58.35V62.772Z" fill="white"/>
<path d="M58.3125 415.125C58.3125 414.776 58.2318 414.482 58.0703 414.242C57.9141 414.003 57.7109 413.799 57.4609 413.633C57.2109 413.471 56.9349 413.336 56.6328 413.227C56.3359 413.117 56.0495 413.018 55.7734 412.93C55.3724 412.799 54.9635 412.643 54.5469 412.461C54.1354 412.273 53.7604 412.049 53.4219 411.789C53.0781 411.523 52.7969 411.211 52.5781 410.852C52.3646 410.487 52.2578 410.06 52.2578 409.57C52.2578 409.081 52.3646 408.643 52.5781 408.258C52.7969 407.872 53.0807 407.547 53.4297 407.281C53.7786 407.016 54.1745 406.815 54.6172 406.68C55.0599 406.539 55.5052 406.469 55.9531 406.469C56.4479 406.469 56.9245 406.552 57.3828 406.719C57.8411 406.88 58.2474 407.109 58.6016 407.406C58.9557 407.703 59.2396 408.062 59.4531 408.484C59.6667 408.906 59.7786 409.378 59.7891 409.898H58.3047C58.263 409.57 58.1823 409.273 58.0625 409.008C57.9427 408.737 57.7839 408.505 57.5859 408.312C57.388 408.12 57.151 407.971 56.875 407.867C56.6042 407.758 56.2969 407.703 55.9531 407.703C55.6771 407.703 55.4062 407.742 55.1406 407.82C54.8802 407.898 54.6484 408.016 54.4453 408.172C54.237 408.328 54.0703 408.521 53.9453 408.75C53.8255 408.979 53.7656 409.245 53.7656 409.547C53.7708 409.875 53.8542 410.154 54.0156 410.383C54.1771 410.607 54.3828 410.797 54.6328 410.953C54.8776 411.109 55.1432 411.24 55.4297 411.344C55.7214 411.448 55.9948 411.539 56.25 411.617C56.6719 411.747 57.0938 411.906 57.5156 412.094C57.9375 412.276 58.3229 412.51 58.6719 412.797C59.0156 413.062 59.2917 413.388 59.5 413.773C59.7135 414.159 59.8203 414.604 59.8203 415.109C59.8203 415.62 59.7057 416.065 59.4766 416.445C59.2526 416.826 58.9609 417.141 58.6016 417.391C58.2422 417.646 57.8359 417.839 57.3828 417.969C56.9297 418.094 56.4766 418.156 56.0234 418.156C55.4818 418.156 54.9479 418.065 54.4219 417.883C53.901 417.701 53.4479 417.438 53.0625 417.094C52.7188 416.797 52.4453 416.451 52.2422 416.055C52.0443 415.654 51.9375 415.208 51.9219 414.719H53.3984C53.4453 415.073 53.5417 415.388 53.6875 415.664C53.8333 415.935 54.0208 416.164 54.25 416.352C54.4792 416.544 54.7422 416.69 55.0391 416.789C55.3411 416.883 55.6693 416.93 56.0234 416.93C56.3047 416.93 56.5807 416.896 56.8516 416.828C57.1276 416.755 57.3724 416.643 57.5859 416.492C57.7995 416.346 57.974 416.161 58.1094 415.938C58.2448 415.708 58.3125 415.438 58.3125 415.125ZM65.3906 407.5V409.547H68.6094V410.664H65.3906V415.258C65.3906 415.586 65.4323 415.857 65.5156 416.07C65.599 416.284 65.7135 416.453 65.8594 416.578C66.0052 416.708 66.1719 416.799 66.3594 416.852C66.5521 416.904 66.7552 416.93 66.9688 416.93C67.125 416.93 67.2865 416.922 67.4531 416.906C67.6198 416.885 67.7839 416.862 67.9453 416.836C68.1016 416.81 68.2474 416.784 68.3828 416.758C68.5234 416.727 68.638 416.701 68.7266 416.68L68.9297 417.703C68.8099 417.776 68.6641 417.841 68.4922 417.898C68.3203 417.951 68.1328 417.995 67.9297 418.031C67.7266 418.073 67.5104 418.104 67.2812 418.125C67.0573 418.146 66.8333 418.156 66.6094 418.156C66.2344 418.156 65.8828 418.104 65.5547 418C65.2318 417.891 64.9505 417.719 64.7109 417.484C64.4714 417.255 64.2812 416.958 64.1406 416.594C64.0052 416.224 63.9375 415.779 63.9375 415.258V410.664H61.7188V409.547H63.9375V407.5H65.3906ZM77.1328 418C77.0755 417.891 77.0286 417.755 76.9922 417.594C76.9609 417.427 76.9375 417.255 76.9219 417.078C76.776 417.224 76.612 417.362 76.4297 417.492C76.2526 417.622 76.0573 417.737 75.8438 417.836C75.625 417.935 75.3932 418.013 75.1484 418.07C74.9036 418.128 74.6432 418.156 74.3672 418.156C73.9193 418.156 73.513 418.091 73.1484 417.961C72.7891 417.831 72.4844 417.654 72.2344 417.43C71.9792 417.211 71.7812 416.951 71.6406 416.648C71.5052 416.341 71.4375 416.01 71.4375 415.656C71.4375 415.193 71.5286 414.786 71.7109 414.438C71.8984 414.089 72.1615 413.797 72.5 413.562C72.8385 413.333 73.2448 413.161 73.7188 413.047C74.1979 412.932 74.7318 412.875 75.3203 412.875H76.8984V412.211C76.8984 411.956 76.8516 411.727 76.7578 411.523C76.6641 411.32 76.5312 411.146 76.3594 411C76.1875 410.859 75.9766 410.75 75.7266 410.672C75.4818 410.594 75.2057 410.555 74.8984 410.555C74.612 410.555 74.3542 410.591 74.125 410.664C73.901 410.737 73.7109 410.833 73.5547 410.953C73.3984 411.073 73.276 411.216 73.1875 411.383C73.1042 411.544 73.0625 411.714 73.0625 411.891H71.6094C71.6146 411.583 71.6927 411.281 71.8438 410.984C72 410.688 72.224 410.419 72.5156 410.18C72.8021 409.945 73.151 409.755 73.5625 409.609C73.9792 409.464 74.4505 409.391 74.9766 409.391C75.4557 409.391 75.901 409.451 76.3125 409.57C76.724 409.685 77.0807 409.859 77.3828 410.094C77.6797 410.333 77.9141 410.63 78.0859 410.984C78.2578 411.339 78.3438 411.753 78.3438 412.227V416.156C78.3438 416.438 78.3698 416.737 78.4219 417.055C78.474 417.367 78.5469 417.641 78.6406 417.875V418H77.1328ZM74.5781 416.898C74.8594 416.898 75.1224 416.862 75.3672 416.789C75.612 416.716 75.8359 416.62 76.0391 416.5C76.237 416.38 76.4089 416.245 76.5547 416.094C76.7005 415.938 76.8151 415.776 76.8984 415.609V413.898H75.5547C75.0547 413.898 74.6172 413.943 74.2422 414.031C73.8724 414.115 73.5781 414.245 73.3594 414.422C73.2031 414.547 73.0833 414.695 73 414.867C72.9219 415.039 72.8828 415.234 72.8828 415.453C72.8828 415.661 72.9167 415.854 72.9844 416.031C73.0573 416.208 73.1641 416.359 73.3047 416.484C73.4453 416.615 73.6224 416.716 73.8359 416.789C74.0495 416.862 74.2969 416.898 74.5781 416.898ZM86.7578 418L86.6719 416.836C86.3906 417.253 86.0391 417.578 85.6172 417.812C85.1953 418.042 84.7083 418.156 84.1562 418.156C83.7135 418.156 83.3125 418.089 82.9531 417.953C82.5938 417.812 82.2865 417.596 82.0312 417.305C81.776 417.013 81.5781 416.643 81.4375 416.195C81.3021 415.742 81.2344 415.201 81.2344 414.57V409.547H82.6797V414.586C82.6797 415.044 82.7161 415.424 82.7891 415.727C82.862 416.029 82.9714 416.268 83.1172 416.445C83.263 416.628 83.4401 416.755 83.6484 416.828C83.862 416.901 84.1068 416.938 84.3828 416.938C84.7057 416.938 84.9948 416.901 85.25 416.828C85.5052 416.75 85.7266 416.643 85.9141 416.508C86.0703 416.398 86.2057 416.268 86.3203 416.117C86.4401 415.961 86.5391 415.792 86.6172 415.609V409.547H88.0703V418H86.7578ZM96.3359 409.391C96.6016 409.391 96.8776 409.409 97.1641 409.445C97.4557 409.482 97.6745 409.531 97.8203 409.594L97.625 411.008C97.3438 410.945 97.0755 410.901 96.8203 410.875C96.5703 410.844 96.3073 410.828 96.0312 410.828C95.6771 410.828 95.3568 410.872 95.0703 410.961C94.7839 411.044 94.5339 411.169 94.3203 411.336C94.1276 411.482 93.9583 411.661 93.8125 411.875C93.6719 412.083 93.5547 412.318 93.4609 412.578V418H92.0078V409.547H93.3828L93.4453 410.68L93.4531 410.891C93.7969 410.427 94.2083 410.062 94.6875 409.797C95.1719 409.526 95.7214 409.391 96.3359 409.391ZM100.633 409.547H104.953V416.75H107.711V418H100.633V416.75H103.508V410.805H100.633V409.547ZM103.32 407.328C103.32 407.203 103.339 407.086 103.375 406.977C103.417 406.867 103.479 406.773 103.562 406.695C103.63 406.628 103.716 406.576 103.82 406.539C103.93 406.497 104.052 406.477 104.188 406.477C104.323 406.477 104.443 406.497 104.547 406.539C104.651 406.576 104.737 406.628 104.805 406.695C104.888 406.768 104.951 406.859 104.992 406.969C105.034 407.078 105.055 407.198 105.055 407.328C105.055 407.562 104.982 407.758 104.836 407.914C104.69 408.07 104.474 408.148 104.188 408.148C103.896 408.148 103.677 408.07 103.531 407.914C103.391 407.758 103.32 407.562 103.32 407.328ZM112.547 414.055L111.484 415.078V418H110.031V406H111.484V413.344L112.43 412.328L115.203 409.547H116.961L113.539 413.07L117.484 418H115.648L112.547 414.055ZM119.219 413.695C119.219 413.086 119.307 412.521 119.484 412C119.661 411.474 119.917 411.018 120.25 410.633C120.578 410.247 120.979 409.945 121.453 409.727C121.927 409.503 122.461 409.391 123.055 409.391C123.654 409.391 124.19 409.503 124.664 409.727C125.143 409.945 125.549 410.247 125.883 410.633C126.211 411.018 126.464 411.474 126.641 412C126.818 412.521 126.906 413.086 126.906 413.695V413.867C126.906 414.477 126.818 415.042 126.641 415.562C126.464 416.083 126.211 416.536 125.883 416.922C125.549 417.307 125.146 417.609 124.672 417.828C124.198 418.047 123.664 418.156 123.07 418.156C122.471 418.156 121.932 418.047 121.453 417.828C120.979 417.609 120.578 417.307 120.25 416.922C119.917 416.536 119.661 416.083 119.484 415.562C119.307 415.042 119.219 414.477 119.219 413.867V413.695ZM120.664 413.867C120.664 414.284 120.714 414.682 120.812 415.062C120.911 415.438 121.062 415.768 121.266 416.055C121.464 416.341 121.714 416.568 122.016 416.734C122.318 416.901 122.669 416.984 123.07 416.984C123.466 416.984 123.812 416.901 124.109 416.734C124.411 416.568 124.664 416.341 124.867 416.055C125.065 415.768 125.214 415.438 125.312 415.062C125.411 414.682 125.461 414.284 125.461 413.867V413.695C125.461 413.284 125.409 412.891 125.305 412.516C125.206 412.135 125.057 411.802 124.859 411.516C124.656 411.229 124.404 411.003 124.102 410.836C123.805 410.664 123.456 410.578 123.055 410.578C122.654 410.578 122.305 410.664 122.008 410.836C121.711 411.003 121.464 411.229 121.266 411.516C121.062 411.802 120.911 412.135 120.812 412.516C120.714 412.891 120.664 413.284 120.664 413.695V413.867ZM134.852 415.758C134.852 415.586 134.818 415.432 134.75 415.297C134.682 415.156 134.568 415.029 134.406 414.914C134.245 414.799 134.031 414.695 133.766 414.602C133.5 414.503 133.169 414.414 132.773 414.336C132.289 414.237 131.846 414.117 131.445 413.977C131.049 413.836 130.711 413.667 130.43 413.469C130.143 413.276 129.922 413.049 129.766 412.789C129.609 412.523 129.531 412.216 129.531 411.867C129.531 411.523 129.612 411.203 129.773 410.906C129.935 410.604 130.161 410.341 130.453 410.117C130.745 409.893 131.091 409.716 131.492 409.586C131.898 409.456 132.344 409.391 132.828 409.391C133.349 409.391 133.818 409.458 134.234 409.594C134.651 409.729 135.005 409.917 135.297 410.156C135.589 410.396 135.812 410.677 135.969 411C136.13 411.318 136.211 411.661 136.211 412.031H134.766C134.766 411.849 134.719 411.672 134.625 411.5C134.531 411.323 134.401 411.167 134.234 411.031C134.068 410.896 133.865 410.786 133.625 410.703C133.391 410.62 133.125 410.578 132.828 410.578C132.521 410.578 132.25 410.612 132.016 410.68C131.786 410.747 131.596 410.839 131.445 410.953C131.289 411.068 131.172 411.201 131.094 411.352C131.016 411.503 130.977 411.659 130.977 411.82C130.977 411.987 131.008 412.135 131.07 412.266C131.133 412.396 131.242 412.513 131.398 412.617C131.549 412.721 131.753 412.815 132.008 412.898C132.268 412.982 132.596 413.062 132.992 413.141C133.513 413.25 133.979 413.378 134.391 413.523C134.802 413.664 135.148 413.833 135.43 414.031C135.711 414.234 135.924 414.469 136.07 414.734C136.221 415 136.297 415.307 136.297 415.656C136.297 416.031 136.211 416.372 136.039 416.68C135.872 416.987 135.638 417.25 135.336 417.469C135.034 417.688 134.672 417.857 134.25 417.977C133.828 418.096 133.367 418.156 132.867 418.156C132.294 418.156 131.784 418.081 131.336 417.93C130.888 417.773 130.51 417.568 130.203 417.312C129.891 417.062 129.651 416.771 129.484 416.438C129.323 416.104 129.242 415.758 129.242 415.398H130.688C130.708 415.695 130.786 415.945 130.922 416.148C131.062 416.352 131.237 416.516 131.445 416.641C131.648 416.766 131.875 416.854 132.125 416.906C132.375 416.958 132.622 416.984 132.867 416.984C133.253 416.984 133.589 416.94 133.875 416.852C134.161 416.758 134.385 416.63 134.547 416.469C134.646 416.37 134.721 416.26 134.773 416.141C134.826 416.021 134.852 415.893 134.852 415.758ZM144.398 418C144.341 417.891 144.294 417.755 144.258 417.594C144.227 417.427 144.203 417.255 144.188 417.078C144.042 417.224 143.878 417.362 143.695 417.492C143.518 417.622 143.323 417.737 143.109 417.836C142.891 417.935 142.659 418.013 142.414 418.07C142.169 418.128 141.909 418.156 141.633 418.156C141.185 418.156 140.779 418.091 140.414 417.961C140.055 417.831 139.75 417.654 139.5 417.43C139.245 417.211 139.047 416.951 138.906 416.648C138.771 416.341 138.703 416.01 138.703 415.656C138.703 415.193 138.794 414.786 138.977 414.438C139.164 414.089 139.427 413.797 139.766 413.562C140.104 413.333 140.51 413.161 140.984 413.047C141.464 412.932 141.997 412.875 142.586 412.875H144.164V412.211C144.164 411.956 144.117 411.727 144.023 411.523C143.93 411.32 143.797 411.146 143.625 411C143.453 410.859 143.242 410.75 142.992 410.672C142.747 410.594 142.471 410.555 142.164 410.555C141.878 410.555 141.62 410.591 141.391 410.664C141.167 410.737 140.977 410.833 140.82 410.953C140.664 411.073 140.542 411.216 140.453 411.383C140.37 411.544 140.328 411.714 140.328 411.891H138.875C138.88 411.583 138.958 411.281 139.109 410.984C139.266 410.688 139.49 410.419 139.781 410.18C140.068 409.945 140.417 409.755 140.828 409.609C141.245 409.464 141.716 409.391 142.242 409.391C142.721 409.391 143.167 409.451 143.578 409.57C143.99 409.685 144.346 409.859 144.648 410.094C144.945 410.333 145.18 410.63 145.352 410.984C145.523 411.339 145.609 411.753 145.609 412.227V416.156C145.609 416.438 145.635 416.737 145.688 417.055C145.74 417.367 145.812 417.641 145.906 417.875V418H144.398ZM141.844 416.898C142.125 416.898 142.388 416.862 142.633 416.789C142.878 416.716 143.102 416.62 143.305 416.5C143.503 416.38 143.674 416.245 143.82 416.094C143.966 415.938 144.081 415.776 144.164 415.609V413.898H142.82C142.32 413.898 141.883 413.943 141.508 414.031C141.138 414.115 140.844 414.245 140.625 414.422C140.469 414.547 140.349 414.695 140.266 414.867C140.188 415.039 140.148 415.234 140.148 415.453C140.148 415.661 140.182 415.854 140.25 416.031C140.323 416.208 140.43 416.359 140.57 416.484C140.711 416.615 140.888 416.716 141.102 416.789C141.315 416.862 141.562 416.898 141.844 416.898ZM154.023 418L153.938 416.836C153.656 417.253 153.305 417.578 152.883 417.812C152.461 418.042 151.974 418.156 151.422 418.156C150.979 418.156 150.578 418.089 150.219 417.953C149.859 417.812 149.552 417.596 149.297 417.305C149.042 417.013 148.844 416.643 148.703 416.195C148.568 415.742 148.5 415.201 148.5 414.57V409.547H149.945V414.586C149.945 415.044 149.982 415.424 150.055 415.727C150.128 416.029 150.237 416.268 150.383 416.445C150.529 416.628 150.706 416.755 150.914 416.828C151.128 416.901 151.372 416.938 151.648 416.938C151.971 416.938 152.26 416.901 152.516 416.828C152.771 416.75 152.992 416.643 153.18 416.508C153.336 416.398 153.471 416.268 153.586 416.117C153.706 415.961 153.805 415.792 153.883 415.609V409.547H155.336V418H154.023ZM163.602 409.391C163.867 409.391 164.143 409.409 164.43 409.445C164.721 409.482 164.94 409.531 165.086 409.594L164.891 411.008C164.609 410.945 164.341 410.901 164.086 410.875C163.836 410.844 163.573 410.828 163.297 410.828C162.943 410.828 162.622 410.872 162.336 410.961C162.049 411.044 161.799 411.169 161.586 411.336C161.393 411.482 161.224 411.661 161.078 411.875C160.938 412.083 160.82 412.318 160.727 412.578V418H159.273V409.547H160.648L160.711 410.68L160.719 410.891C161.062 410.427 161.474 410.062 161.953 409.797C162.438 409.526 162.987 409.391 163.602 409.391ZM173.242 418L173.156 416.836C172.875 417.253 172.523 417.578 172.102 417.812C171.68 418.042 171.193 418.156 170.641 418.156C170.198 418.156 169.797 418.089 169.438 417.953C169.078 417.812 168.771 417.596 168.516 417.305C168.26 417.013 168.062 416.643 167.922 416.195C167.786 415.742 167.719 415.201 167.719 414.57V409.547H169.164V414.586C169.164 415.044 169.201 415.424 169.273 415.727C169.346 416.029 169.456 416.268 169.602 416.445C169.747 416.628 169.924 416.755 170.133 416.828C170.346 416.901 170.591 416.938 170.867 416.938C171.19 416.938 171.479 416.901 171.734 416.828C171.99 416.75 172.211 416.643 172.398 416.508C172.555 416.398 172.69 416.268 172.805 416.117C172.924 415.961 173.023 415.792 173.102 415.609V409.547H174.555V418H173.242ZM182.898 415.758C182.898 415.586 182.865 415.432 182.797 415.297C182.729 415.156 182.615 415.029 182.453 414.914C182.292 414.799 182.078 414.695 181.812 414.602C181.547 414.503 181.216 414.414 180.82 414.336C180.336 414.237 179.893 414.117 179.492 413.977C179.096 413.836 178.758 413.667 178.477 413.469C178.19 413.276 177.969 413.049 177.812 412.789C177.656 412.523 177.578 412.216 177.578 411.867C177.578 411.523 177.659 411.203 177.82 410.906C177.982 410.604 178.208 410.341 178.5 410.117C178.792 409.893 179.138 409.716 179.539 409.586C179.945 409.456 180.391 409.391 180.875 409.391C181.396 409.391 181.865 409.458 182.281 409.594C182.698 409.729 183.052 409.917 183.344 410.156C183.635 410.396 183.859 410.677 184.016 411C184.177 411.318 184.258 411.661 184.258 412.031H182.812C182.812 411.849 182.766 411.672 182.672 411.5C182.578 411.323 182.448 411.167 182.281 411.031C182.115 410.896 181.911 410.786 181.672 410.703C181.438 410.62 181.172 410.578 180.875 410.578C180.568 410.578 180.297 410.612 180.062 410.68C179.833 410.747 179.643 410.839 179.492 410.953C179.336 411.068 179.219 411.201 179.141 411.352C179.062 411.503 179.023 411.659 179.023 411.82C179.023 411.987 179.055 412.135 179.117 412.266C179.18 412.396 179.289 412.513 179.445 412.617C179.596 412.721 179.799 412.815 180.055 412.898C180.315 412.982 180.643 413.062 181.039 413.141C181.56 413.25 182.026 413.378 182.438 413.523C182.849 413.664 183.195 413.833 183.477 414.031C183.758 414.234 183.971 414.469 184.117 414.734C184.268 415 184.344 415.307 184.344 415.656C184.344 416.031 184.258 416.372 184.086 416.68C183.919 416.987 183.685 417.25 183.383 417.469C183.081 417.688 182.719 417.857 182.297 417.977C181.875 418.096 181.414 418.156 180.914 418.156C180.341 418.156 179.831 418.081 179.383 417.93C178.935 417.773 178.557 417.568 178.25 417.312C177.938 417.062 177.698 416.771 177.531 416.438C177.37 416.104 177.289 415.758 177.289 415.398H178.734C178.755 415.695 178.833 415.945 178.969 416.148C179.109 416.352 179.284 416.516 179.492 416.641C179.695 416.766 179.922 416.854 180.172 416.906C180.422 416.958 180.669 416.984 180.914 416.984C181.299 416.984 181.635 416.94 181.922 416.852C182.208 416.758 182.432 416.63 182.594 416.469C182.693 416.37 182.768 416.26 182.82 416.141C182.872 416.021 182.898 415.893 182.898 415.758Z" fill="white"/>
<path d="M51.944 388V376.48H60.776C61.1813 376.48 61.5493 376.581 61.88 376.784C62.2213 376.987 62.4933 377.259 62.696 377.6C62.8987 377.931 63 378.299 63 378.704V380.96C63 381.099 62.9893 381.232 62.968 381.36C62.9467 381.488 62.9093 381.611 62.856 381.728C63.0373 381.973 63.1813 382.229 63.288 382.496C63.4053 382.763 63.464 383.029 63.464 383.296V385.776C63.464 386.181 63.3627 386.555 63.16 386.896C62.9573 387.227 62.6853 387.493 62.344 387.696C62.0027 387.899 61.6293 388 61.224 388H51.944ZM54.248 385.872H61.128C61.1813 385.872 61.2293 385.856 61.272 385.824C61.3147 385.781 61.336 385.733 61.336 385.68V383.392C61.336 383.339 61.3147 383.296 61.272 383.264C61.2293 383.221 61.1813 383.2 61.128 383.2H54.248C54.1947 383.2 54.1467 383.221 54.104 383.264C54.072 383.296 54.056 383.339 54.056 383.392V385.68C54.056 385.733 54.072 385.781 54.104 385.824C54.1467 385.856 54.1947 385.872 54.248 385.872ZM54.248 381.072H60.68C60.7333 381.072 60.776 381.056 60.808 381.024C60.84 380.981 60.856 380.933 60.856 380.88V378.8C60.856 378.747 60.84 378.704 60.808 378.672C60.776 378.629 60.7333 378.608 60.68 378.608H54.248C54.1947 378.608 54.1467 378.629 54.104 378.672C54.072 378.704 54.056 378.747 54.056 378.8V380.88C54.056 380.933 54.072 380.981 54.104 381.024C54.1467 381.056 54.1947 381.072 54.248 381.072ZM65.1445 388V378.72H67.2405V388H65.1445ZM65.1445 377.792V375.68H67.2405V377.792H65.1445ZM70.0674 391.664V389.552H75.6514C75.7047 389.552 75.7474 389.531 75.7794 389.488C75.822 389.456 75.8434 389.413 75.8434 389.36V388H70.7234C70.3287 388 69.9607 387.899 69.6194 387.696C69.2887 387.493 69.022 387.227 68.8194 386.896C68.6167 386.565 68.5154 386.197 68.5154 385.792V380.928C68.5154 380.523 68.6167 380.155 68.8194 379.824C69.022 379.493 69.2887 379.227 69.6194 379.024C69.9607 378.821 70.3287 378.72 70.7234 378.72H75.7474C76.1527 378.72 76.5207 378.821 76.8514 379.024C77.182 379.227 77.4434 379.493 77.6354 379.824C77.838 380.155 77.9394 380.523 77.9394 380.928V389.456C77.9394 389.872 77.8434 390.245 77.6514 390.576C77.4594 390.907 77.1927 391.168 76.8514 391.36C76.5207 391.563 76.1527 391.664 75.7474 391.664H70.0674ZM70.8034 385.904H75.6514C75.7047 385.904 75.7474 385.888 75.7794 385.856C75.822 385.813 75.8434 385.765 75.8434 385.712V381.008C75.8434 380.955 75.822 380.912 75.7794 380.88C75.7474 380.837 75.7047 380.816 75.6514 380.816H70.8034C70.75 380.816 70.702 380.837 70.6594 380.88C70.6274 380.912 70.6114 380.955 70.6114 381.008V385.712C70.6114 385.765 70.6274 385.813 70.6594 385.856C70.702 385.888 70.75 385.904 70.8034 385.904ZM80.7705 391.664V389.552H86.3545C86.4078 389.552 86.4505 389.531 86.4825 389.488C86.5252 389.456 86.5465 389.413 86.5465 389.36V388H81.4265C81.0318 388 80.6638 387.899 80.3225 387.696C79.9918 387.493 79.7252 387.227 79.5225 386.896C79.3198 386.565 79.2185 386.197 79.2185 385.792V380.928C79.2185 380.523 79.3198 380.155 79.5225 379.824C79.7252 379.493 79.9918 379.227 80.3225 379.024C80.6638 378.821 81.0318 378.72 81.4265 378.72H86.4505C86.8558 378.72 87.2238 378.821 87.5545 379.024C87.8852 379.227 88.1465 379.493 88.3385 379.824C88.5412 380.155 88.6425 380.523 88.6425 380.928V389.456C88.6425 389.872 88.5465 390.245 88.3545 390.576C88.1625 390.907 87.8958 391.168 87.5545 391.36C87.2238 391.563 86.8558 391.664 86.4505 391.664H80.7705ZM81.5065 385.904H86.3545C86.4078 385.904 86.4505 385.888 86.4825 385.856C86.5252 385.813 86.5465 385.765 86.5465 385.712V381.008C86.5465 380.955 86.5252 380.912 86.4825 380.88C86.4505 380.837 86.4078 380.816 86.3545 380.816H81.5065C81.4532 380.816 81.4052 380.837 81.3625 380.88C81.3305 380.912 81.3145 380.955 81.3145 381.008V385.712C81.3145 385.765 81.3305 385.813 81.3625 385.856C81.4052 385.888 81.4532 385.904 81.5065 385.904ZM92.1803 388C91.7749 388 91.4069 387.899 91.0763 387.696C90.7456 387.493 90.4789 387.227 90.2763 386.896C90.0736 386.565 89.9723 386.197 89.9723 385.792V380.928C89.9723 380.523 90.0736 380.155 90.2763 379.824C90.4789 379.493 90.7456 379.227 91.0763 379.024C91.4069 378.821 91.7749 378.72 92.1803 378.72H97.1883C97.5936 378.72 97.9616 378.821 98.2923 379.024C98.6336 379.227 98.9003 379.493 99.0923 379.824C99.2949 380.155 99.3963 380.523 99.3963 380.928V384.416H92.0683V385.712C92.0683 385.765 92.0843 385.813 92.1163 385.856C92.1589 385.888 92.2069 385.904 92.2603 385.904H99.3963V388H92.1803ZM92.0683 382.528H97.3003V381.008C97.3003 380.955 97.2789 380.912 97.2362 380.88C97.2043 380.837 97.1616 380.816 97.1083 380.816H92.2603C92.2069 380.816 92.1589 380.837 92.1163 380.88C92.0843 380.912 92.0683 380.955 92.0683 381.008V382.528ZM103.101 388C102.696 388 102.328 387.899 101.997 387.696C101.666 387.493 101.4 387.227 101.197 386.896C100.994 386.565 100.893 386.197 100.893 385.792V385.44H102.989V385.712C102.989 385.765 103.005 385.813 103.037 385.856C103.08 385.888 103.128 385.904 103.181 385.904H108.029C108.082 385.904 108.125 385.888 108.157 385.856C108.2 385.813 108.221 385.765 108.221 385.712V384.608C108.221 384.555 108.2 384.512 108.157 384.48C108.125 384.437 108.082 384.416 108.029 384.416H103.101C102.696 384.416 102.328 384.315 101.997 384.112C101.666 383.909 101.4 383.643 101.197 383.312C100.994 382.981 100.893 382.613 100.893 382.208V380.928C100.893 380.523 100.994 380.155 101.197 379.824C101.4 379.493 101.666 379.227 101.997 379.024C102.328 378.821 102.696 378.72 103.101 378.72H108.109C108.525 378.72 108.898 378.821 109.229 379.024C109.56 379.227 109.826 379.493 110.029 379.824C110.232 380.155 110.333 380.523 110.333 380.928V381.28H108.221V381.008C108.221 380.955 108.2 380.912 108.157 380.88C108.125 380.837 108.082 380.816 108.029 380.816H103.181C103.128 380.816 103.08 380.837 103.037 380.88C103.005 380.912 102.989 380.955 102.989 381.008V382.112C102.989 382.165 103.005 382.213 103.037 382.256C103.08 382.288 103.128 382.304 103.181 382.304H108.109C108.525 382.304 108.898 382.405 109.229 382.608C109.56 382.811 109.826 383.077 110.029 383.408C110.232 383.739 110.333 384.107 110.333 384.512V385.792C110.333 386.197 110.232 386.565 110.029 386.896C109.826 387.227 109.56 387.493 109.229 387.696C108.898 387.899 108.525 388 108.109 388H103.101ZM114.15 388C113.744 388 113.376 387.899 113.046 387.696C112.715 387.493 112.448 387.227 112.246 386.896C112.043 386.565 111.942 386.197 111.942 385.792V375.872H114.038V378.72H117.654V380.816H114.038V385.712C114.038 385.765 114.054 385.813 114.086 385.856C114.128 385.888 114.176 385.904 114.23 385.904H117.654V388H114.15ZM123.864 391.68V378.72H131.08C131.485 378.72 131.853 378.821 132.184 379.024C132.525 379.227 132.792 379.493 132.984 379.824C133.187 380.155 133.288 380.523 133.288 380.928V385.792C133.288 386.197 133.187 386.565 132.984 386.896C132.792 387.227 132.525 387.493 132.184 387.696C131.853 387.899 131.485 388 131.08 388H125.96V391.68H123.864ZM126.152 385.904H131C131.053 385.904 131.096 385.888 131.128 385.856C131.171 385.813 131.192 385.765 131.192 385.712V381.008C131.192 380.955 131.171 380.912 131.128 380.88C131.096 380.837 131.053 380.816 131 380.816H126.152C126.099 380.816 126.051 380.837 126.008 380.88C125.976 380.912 125.96 380.955 125.96 381.008V385.712C125.96 385.765 125.976 385.813 126.008 385.856C126.051 385.888 126.099 385.904 126.152 385.904ZM134.457 388V380.928C134.457 380.523 134.558 380.155 134.761 379.824C134.964 379.493 135.23 379.227 135.561 379.024C135.902 378.821 136.27 378.72 136.665 378.72H141.817V380.816H136.745C136.692 380.816 136.644 380.837 136.601 380.88C136.569 380.912 136.553 380.955 136.553 381.008V388H134.457ZM145.118 388C144.712 388 144.344 387.899 144.014 387.696C143.683 387.493 143.416 387.227 143.214 386.896C143.011 386.565 142.91 386.197 142.91 385.792V380.928C142.91 380.523 143.011 380.155 143.214 379.824C143.416 379.493 143.683 379.227 144.014 379.024C144.344 378.821 144.712 378.72 145.118 378.72H150.126C150.531 378.72 150.899 378.821 151.23 379.024C151.571 379.227 151.838 379.493 152.03 379.824C152.232 380.155 152.334 380.523 152.334 380.928V384.416H145.006V385.712C145.006 385.765 145.022 385.813 145.054 385.856C145.096 385.888 145.144 385.904 145.198 385.904H152.334V388H145.118ZM145.006 382.528H150.238V381.008C150.238 380.955 150.216 380.912 150.174 380.88C150.142 380.837 150.099 380.816 150.046 380.816H145.198C145.144 380.816 145.096 380.837 145.054 380.88C145.022 380.912 145.006 380.955 145.006 381.008V382.528ZM155.748 388C155.332 388 154.959 387.899 154.628 387.696C154.297 387.493 154.031 387.227 153.828 386.896C153.636 386.565 153.54 386.197 153.54 385.792V380.928C153.54 380.523 153.636 380.155 153.828 379.824C154.031 379.493 154.297 379.227 154.628 379.024C154.959 378.821 155.332 378.72 155.748 378.72H160.884V375.68H162.98V388H155.748ZM155.844 385.904H160.692C160.745 385.904 160.788 385.888 160.82 385.856C160.863 385.813 160.884 385.765 160.884 385.712V381.008C160.884 380.955 160.863 380.912 160.82 380.88C160.788 380.837 160.745 380.816 160.692 380.816H155.844C155.791 380.816 155.743 380.837 155.7 380.88C155.668 380.912 155.652 380.955 155.652 381.008V385.712C155.652 385.765 155.668 385.813 155.7 385.856C155.743 385.888 155.791 385.904 155.844 385.904ZM166.884 388C166.478 388 166.105 387.899 165.764 387.696C165.433 387.493 165.166 387.227 164.964 386.896C164.772 386.565 164.676 386.197 164.676 385.792V382.304H172.004V381.008C172.004 380.955 171.982 380.912 171.94 380.88C171.908 380.837 171.865 380.816 171.812 380.816H164.676V378.72H171.892C172.297 378.72 172.665 378.821 172.996 379.024C173.337 379.227 173.604 379.493 173.796 379.824C173.998 380.155 174.1 380.523 174.1 380.928V388H166.884ZM166.964 385.904H172.004V384.192H166.772V385.712C166.772 385.765 166.788 385.813 166.82 385.856C166.862 385.888 166.91 385.904 166.964 385.904ZM178.009 388C177.604 388 177.236 387.899 176.905 387.696C176.574 387.493 176.308 387.227 176.105 386.896C175.902 386.565 175.801 386.197 175.801 385.792V375.872H177.897V378.72H181.513V380.816H177.897V385.712C177.897 385.765 177.913 385.813 177.945 385.856C177.988 385.888 178.036 385.904 178.089 385.904H181.513V388H178.009ZM184.993 388C184.587 388 184.219 387.899 183.889 387.696C183.558 387.493 183.291 387.227 183.089 386.896C182.886 386.565 182.785 386.197 182.785 385.792V380.928C182.785 380.523 182.886 380.155 183.089 379.824C183.291 379.493 183.558 379.227 183.889 379.024C184.219 378.821 184.587 378.72 184.993 378.72H190.001C190.406 378.72 190.774 378.821 191.105 379.024C191.446 379.227 191.713 379.493 191.905 379.824C192.107 380.155 192.209 380.523 192.209 380.928V385.792C192.209 386.197 192.107 386.565 191.905 386.896C191.713 387.227 191.451 387.493 191.121 387.696C190.79 387.899 190.417 388 190.001 388H184.993ZM185.073 385.904H189.921C189.974 385.904 190.017 385.888 190.049 385.856C190.091 385.813 190.113 385.765 190.113 385.712V381.008C190.113 380.955 190.091 380.912 190.049 380.88C190.017 380.837 189.974 380.816 189.921 380.816H185.073C185.019 380.816 184.971 380.837 184.929 380.88C184.897 380.912 184.881 380.955 184.881 381.008V385.712C184.881 385.765 184.897 385.813 184.929 385.856C184.971 385.888 185.019 385.904 185.073 385.904ZM193.535 388V380.928C193.535 380.523 193.636 380.155 193.839 379.824C194.042 379.493 194.308 379.227 194.639 379.024C194.98 378.821 195.348 378.72 195.743 378.72H200.895V380.816H195.823C195.77 380.816 195.722 380.837 195.679 380.88C195.647 380.912 195.631 380.955 195.631 381.008V388H193.535ZM206.897 384.32V382.224H213.441V384.32H206.897Z" fill="white"/>
<path d="M51.896 235V223.496H61.176C61.5813 223.496 61.9547 223.597 62.296 223.8C62.6373 224.003 62.9093 224.275 63.112 224.616C63.3147 224.947 63.416 225.315 63.416 225.72V228.824C63.416 229.229 63.3147 229.603 63.112 229.944C62.9093 230.285 62.6373 230.557 62.296 230.76C61.9547 230.952 61.5813 231.048 61.176 231.048L54.008 231.064V235H51.896ZM54.2 228.92H61.08C61.1333 228.92 61.1813 228.904 61.224 228.872C61.2667 228.84 61.288 228.797 61.288 228.744V225.8C61.288 225.747 61.2667 225.704 61.224 225.672C61.1813 225.629 61.1333 225.608 61.08 225.608H54.2C54.1467 225.608 54.0987 225.629 54.056 225.672C54.024 225.704 54.008 225.747 54.008 225.8V228.744C54.008 228.797 54.024 228.84 54.056 228.872C54.0987 228.904 54.1467 228.92 54.2 228.92ZM66.6803 235C66.2749 235 65.9069 234.899 65.5763 234.696C65.2456 234.493 64.9789 234.227 64.7763 233.896C64.5736 233.565 64.4723 233.197 64.4723 232.792V227.928C64.4723 227.523 64.5736 227.155 64.7763 226.824C64.9789 226.493 65.2456 226.227 65.5763 226.024C65.9069 225.821 66.2749 225.72 66.6803 225.72H71.6883C72.0936 225.72 72.4616 225.821 72.7923 226.024C73.1336 226.227 73.4003 226.493 73.5923 226.824C73.7949 227.155 73.8963 227.523 73.8963 227.928V231.416H66.5683V232.712C66.5683 232.765 66.5843 232.813 66.6163 232.856C66.6589 232.888 66.7069 232.904 66.7603 232.904H73.8963V235H66.6803ZM66.5683 229.528H71.8003V228.008C71.8003 227.955 71.7789 227.912 71.7362 227.88C71.7043 227.837 71.6616 227.816 71.6083 227.816H66.7603C66.7069 227.816 66.6589 227.837 66.6163 227.88C66.5843 227.912 66.5683 227.955 66.5683 228.008V229.528ZM75.4726 235V227.928C75.4726 227.523 75.574 227.155 75.7766 226.824C75.9793 226.493 76.246 226.227 76.5766 226.024C76.918 225.821 77.286 225.72 77.6806 225.72H82.8326V227.816H77.7606C77.7073 227.816 77.6593 227.837 77.6166 227.88C77.5846 227.912 77.5686 227.955 77.5686 228.008V235H75.4726ZM84.0508 235V225.72H86.1468V235H84.0508ZM84.0508 224.792V222.68H86.1468V224.792H84.0508ZM89.7896 235C89.3843 235 89.0163 234.899 88.6856 234.696C88.355 234.493 88.0883 234.227 87.8856 233.896C87.683 233.565 87.5816 233.197 87.5816 232.792V227.928C87.5816 227.523 87.683 227.155 87.8856 226.824C88.0883 226.493 88.355 226.227 88.6856 226.024C89.0163 225.821 89.3843 225.72 89.7896 225.72H94.7976C95.203 225.72 95.571 225.821 95.9016 226.024C96.243 226.227 96.5096 226.493 96.7016 226.824C96.9043 227.155 97.0056 227.523 97.0056 227.928V232.792C97.0056 233.197 96.9043 233.565 96.7016 233.896C96.5096 234.227 96.2483 234.493 95.9176 234.696C95.587 234.899 95.2136 235 94.7976 235H89.7896ZM89.8696 232.904H94.7176C94.771 232.904 94.8136 232.888 94.8456 232.856C94.8883 232.813 94.9096 232.765 94.9096 232.712V228.008C94.9096 227.955 94.8883 227.912 94.8456 227.88C94.8136 227.837 94.771 227.816 94.7176 227.816H89.8696C89.8163 227.816 89.7683 227.837 89.7256 227.88C89.6936 227.912 89.6776 227.955 89.6776 228.008V232.712C89.6776 232.765 89.6936 232.813 89.7256 232.856C89.7683 232.888 89.8163 232.904 89.8696 232.904ZM100.42 235C100.004 235 99.6304 234.899 99.2998 234.696C98.9691 234.493 98.7024 234.227 98.4998 233.896C98.3078 233.565 98.2118 233.197 98.2118 232.792V227.928C98.2118 227.523 98.3078 227.155 98.4998 226.824C98.7024 226.493 98.9691 226.227 99.2998 226.024C99.6304 225.821 100.004 225.72 100.42 225.72H105.556V222.68H107.652V235H100.42ZM100.516 232.904H105.364C105.417 232.904 105.46 232.888 105.492 232.856C105.534 232.813 105.556 232.765 105.556 232.712V228.008C105.556 227.955 105.534 227.912 105.492 227.88C105.46 227.837 105.417 227.816 105.364 227.816H100.516C100.462 227.816 100.414 227.837 100.372 227.88C100.34 227.912 100.324 227.955 100.324 228.008V232.712C100.324 232.765 100.34 232.813 100.372 232.856C100.414 232.888 100.462 232.904 100.516 232.904ZM114.35 231.32V229.224H120.894V231.32H114.35Z" fill="white"/>
<path d="M59.8984 249.453H56.2734V260H55.3594L55.3672 249.453H51.7344V248.625H59.8984V249.453ZM67.7109 251.391C67.9401 251.391 68.1719 251.406 68.4062 251.438C68.6458 251.464 68.8464 251.503 69.0078 251.555L68.8828 252.461C68.6693 252.414 68.4531 252.378 68.2344 252.352C68.0156 252.326 67.7917 252.312 67.5625 252.312C67.1667 252.312 66.7943 252.359 66.4453 252.453C66.1016 252.542 65.7917 252.682 65.5156 252.875C65.25 253.062 65.0182 253.299 64.8203 253.586C64.6276 253.867 64.4792 254.203 64.375 254.594L64.3828 260H63.4219V251.547H64.3125L64.3672 252.852V253.227C64.6953 252.648 65.1432 252.198 65.7109 251.875C66.2786 251.547 66.9453 251.385 67.7109 251.391ZM71.9453 251.547H75.8672V259.164H78.7422V260H71.9453V259.164H74.9375V252.383H71.9453V251.547ZM74.6641 249.234C74.6641 249.135 74.6771 249.042 74.7031 248.953C74.7292 248.865 74.7734 248.786 74.8359 248.719C74.8932 248.656 74.9661 248.609 75.0547 248.578C75.1432 248.542 75.2474 248.523 75.3672 248.523C75.487 248.523 75.5911 248.542 75.6797 248.578C75.7682 248.609 75.8385 248.656 75.8906 248.719C75.9531 248.781 76 248.857 76.0312 248.945C76.0625 249.034 76.0781 249.13 76.0781 249.234C76.0781 249.422 76.0208 249.583 75.9062 249.719C75.7917 249.854 75.612 249.922 75.3672 249.922C75.1172 249.922 74.9375 249.854 74.8281 249.719C74.7188 249.583 74.6641 249.422 74.6641 249.234ZM87.1484 260C87.0911 259.812 87.0469 259.612 87.0156 259.398C86.9896 259.185 86.9714 258.969 86.9609 258.75C86.7995 258.964 86.6094 259.159 86.3906 259.336C86.1771 259.508 85.9427 259.654 85.6875 259.773C85.4271 259.898 85.151 259.992 84.8594 260.055C84.5729 260.122 84.2734 260.156 83.9609 260.156C83.5703 260.156 83.2031 260.099 82.8594 259.984C82.5156 259.87 82.2188 259.708 81.9688 259.5C81.7188 259.292 81.5208 259.042 81.375 258.75C81.2292 258.453 81.1562 258.122 81.1562 257.758C81.1562 257.273 81.263 256.862 81.4766 256.523C81.6953 256.185 81.987 255.906 82.3516 255.688C82.7109 255.479 83.1302 255.328 83.6094 255.234C84.0885 255.135 84.5911 255.083 85.1172 255.078H86.9531V254.125C86.9479 253.807 86.8854 253.529 86.7656 253.289C86.6458 253.044 86.4818 252.841 86.2734 252.68C86.0651 252.518 85.8177 252.396 85.5312 252.312C85.25 252.224 84.9453 252.18 84.6172 252.18C84.3151 252.18 84.026 252.219 83.75 252.297C83.474 252.375 83.2292 252.487 83.0156 252.633C82.8073 252.779 82.6354 252.958 82.5 253.172C82.3698 253.38 82.3021 253.617 82.2969 253.883L81.3594 253.875C81.375 253.516 81.4714 253.185 81.6484 252.883C81.8255 252.581 82.0625 252.318 82.3594 252.094C82.6562 251.875 83 251.703 83.3906 251.578C83.7865 251.453 84.2083 251.391 84.6562 251.391C85.1042 251.391 85.5234 251.448 85.9141 251.562C86.3047 251.677 86.6458 251.846 86.9375 252.07C87.224 252.305 87.4505 252.594 87.6172 252.938C87.7891 253.281 87.8776 253.682 87.8828 254.141V258.227C87.8828 258.513 87.9062 258.799 87.9531 259.086C88.0052 259.372 88.0677 259.646 88.1406 259.906L88.1484 260H87.1484ZM84.0625 259.32C84.3906 259.326 84.7031 259.289 85 259.211C85.2969 259.128 85.5703 259.013 85.8203 258.867C86.0703 258.721 86.2917 258.547 86.4844 258.344C86.6771 258.141 86.8333 257.914 86.9531 257.664V255.805H85.25C84.7865 255.81 84.3464 255.849 83.9297 255.922C83.513 255.995 83.1562 256.125 82.8594 256.312C82.6198 256.464 82.4297 256.651 82.2891 256.875C82.1536 257.094 82.0859 257.359 82.0859 257.672C82.0859 257.927 82.138 258.156 82.2422 258.359C82.3464 258.562 82.487 258.734 82.6641 258.875C82.8411 259.021 83.0495 259.133 83.2891 259.211C83.5339 259.284 83.7917 259.32 84.0625 259.32ZM96.8438 257.844C96.8438 257.599 96.7865 257.385 96.6719 257.203C96.5573 257.016 96.3984 256.857 96.1953 256.727C95.9714 256.581 95.6979 256.456 95.375 256.352C95.0573 256.247 94.7292 256.159 94.3906 256.086C93.9583 255.997 93.5625 255.896 93.2031 255.781C92.8438 255.667 92.5078 255.518 92.1953 255.336C91.9036 255.164 91.6667 254.945 91.4844 254.68C91.3073 254.409 91.2188 254.081 91.2188 253.695C91.2188 253.331 91.3073 253.005 91.4844 252.719C91.6667 252.432 91.9089 252.188 92.2109 251.984C92.4974 251.797 92.8307 251.651 93.2109 251.547C93.5964 251.443 93.9922 251.391 94.3984 251.391C94.8516 251.391 95.276 251.448 95.6719 251.562C96.0729 251.672 96.4245 251.833 96.7266 252.047C97.0234 252.266 97.2604 252.531 97.4375 252.844C97.6146 253.156 97.7109 253.513 97.7266 253.914H96.7891C96.7839 253.643 96.7109 253.401 96.5703 253.188C96.4349 252.974 96.2578 252.794 96.0391 252.648C95.8151 252.503 95.5599 252.391 95.2734 252.312C94.9922 252.234 94.7005 252.195 94.3984 252.195C94.112 252.195 93.8333 252.227 93.5625 252.289C93.2969 252.346 93.0599 252.438 92.8516 252.562C92.638 252.682 92.4661 252.836 92.3359 253.023C92.2109 253.206 92.1484 253.419 92.1484 253.664C92.1484 253.909 92.2031 254.122 92.3125 254.305C92.4271 254.482 92.5938 254.633 92.8125 254.758C93.0312 254.888 93.2943 254.997 93.6016 255.086C93.9089 255.169 94.2292 255.245 94.5625 255.312C94.9896 255.401 95.3958 255.51 95.7812 255.641C96.1719 255.766 96.5156 255.922 96.8125 256.109C97.1094 256.302 97.3438 256.536 97.5156 256.812C97.6875 257.083 97.7734 257.411 97.7734 257.797C97.7734 258.161 97.6901 258.487 97.5234 258.773C97.3568 259.06 97.1406 259.297 96.875 259.484C96.5521 259.714 96.1771 259.883 95.75 259.992C95.3229 260.102 94.8906 260.156 94.4531 260.156C93.974 260.156 93.5208 260.096 93.0938 259.977C92.6667 259.857 92.2969 259.688 91.9844 259.469C91.6615 259.255 91.4062 258.992 91.2188 258.68C91.0365 258.367 90.9375 258.016 90.9219 257.625H91.8516C91.8828 257.958 91.9818 258.237 92.1484 258.461C92.3203 258.685 92.5312 258.862 92.7812 258.992C93.0208 259.128 93.2865 259.224 93.5781 259.281C93.875 259.333 94.1667 259.359 94.4531 259.359C94.8229 259.359 95.1719 259.315 95.5 259.227C95.8281 259.133 96.112 258.995 96.3516 258.812C96.5078 258.688 96.6276 258.547 96.7109 258.391C96.7995 258.229 96.8438 258.047 96.8438 257.844ZM106.453 257.844C106.453 257.599 106.396 257.385 106.281 257.203C106.167 257.016 106.008 256.857 105.805 256.727C105.581 256.581 105.307 256.456 104.984 256.352C104.667 256.247 104.339 256.159 104 256.086C103.568 255.997 103.172 255.896 102.812 255.781C102.453 255.667 102.117 255.518 101.805 255.336C101.513 255.164 101.276 254.945 101.094 254.68C100.917 254.409 100.828 254.081 100.828 253.695C100.828 253.331 100.917 253.005 101.094 252.719C101.276 252.432 101.518 252.188 101.82 251.984C102.107 251.797 102.44 251.651 102.82 251.547C103.206 251.443 103.602 251.391 104.008 251.391C104.461 251.391 104.885 251.448 105.281 251.562C105.682 251.672 106.034 251.833 106.336 252.047C106.633 252.266 106.87 252.531 107.047 252.844C107.224 253.156 107.32 253.513 107.336 253.914H106.398C106.393 253.643 106.32 253.401 106.18 253.188C106.044 252.974 105.867 252.794 105.648 252.648C105.424 252.503 105.169 252.391 104.883 252.312C104.602 252.234 104.31 252.195 104.008 252.195C103.721 252.195 103.443 252.227 103.172 252.289C102.906 252.346 102.669 252.438 102.461 252.562C102.247 252.682 102.076 252.836 101.945 253.023C101.82 253.206 101.758 253.419 101.758 253.664C101.758 253.909 101.812 254.122 101.922 254.305C102.036 254.482 102.203 254.633 102.422 254.758C102.641 254.888 102.904 254.997 103.211 255.086C103.518 255.169 103.839 255.245 104.172 255.312C104.599 255.401 105.005 255.51 105.391 255.641C105.781 255.766 106.125 255.922 106.422 256.109C106.719 256.302 106.953 256.536 107.125 256.812C107.297 257.083 107.383 257.411 107.383 257.797C107.383 258.161 107.299 258.487 107.133 258.773C106.966 259.06 106.75 259.297 106.484 259.484C106.161 259.714 105.786 259.883 105.359 259.992C104.932 260.102 104.5 260.156 104.062 260.156C103.583 260.156 103.13 260.096 102.703 259.977C102.276 259.857 101.906 259.688 101.594 259.469C101.271 259.255 101.016 258.992 100.828 258.68C100.646 258.367 100.547 258.016 100.531 257.625H101.461C101.492 257.958 101.591 258.237 101.758 258.461C101.93 258.685 102.141 258.862 102.391 258.992C102.63 259.128 102.896 259.224 103.188 259.281C103.484 259.333 103.776 259.359 104.062 259.359C104.432 259.359 104.781 259.315 105.109 259.227C105.438 259.133 105.721 258.995 105.961 258.812C106.117 258.688 106.237 258.547 106.32 258.391C106.409 258.229 106.453 258.047 106.453 257.844ZM110.383 251.547H114.305V259.164H117.18V260H110.383V259.164H113.375V252.383H110.383V251.547ZM113.102 249.234C113.102 249.135 113.115 249.042 113.141 248.953C113.167 248.865 113.211 248.786 113.273 248.719C113.331 248.656 113.404 248.609 113.492 248.578C113.581 248.542 113.685 248.523 113.805 248.523C113.924 248.523 114.029 248.542 114.117 248.578C114.206 248.609 114.276 248.656 114.328 248.719C114.391 248.781 114.438 248.857 114.469 248.945C114.5 249.034 114.516 249.13 114.516 249.234C114.516 249.422 114.458 249.583 114.344 249.719C114.229 249.854 114.049 249.922 113.805 249.922C113.555 249.922 113.375 249.854 113.266 249.719C113.156 249.583 113.102 249.422 113.102 249.234ZM123.203 259.359C123.516 259.359 123.812 259.315 124.094 259.227C124.38 259.133 124.635 259 124.859 258.828C125.078 258.656 125.255 258.451 125.391 258.211C125.526 257.966 125.607 257.693 125.633 257.391H126.523C126.497 257.786 126.391 258.154 126.203 258.492C126.021 258.831 125.779 259.122 125.477 259.367C125.174 259.617 124.828 259.812 124.438 259.953C124.047 260.089 123.635 260.156 123.203 260.156C122.589 260.156 122.052 260.039 121.594 259.805C121.135 259.57 120.753 259.255 120.445 258.859C120.138 258.474 119.909 258.029 119.758 257.523C119.607 257.013 119.529 256.484 119.523 255.938V255.609C119.529 255.068 119.607 254.542 119.758 254.031C119.909 253.521 120.138 253.07 120.445 252.68C120.747 252.289 121.128 251.977 121.586 251.742C122.044 251.508 122.581 251.391 123.195 251.391C123.669 251.391 124.104 251.466 124.5 251.617C124.901 251.763 125.247 251.969 125.539 252.234C125.831 252.5 126.062 252.818 126.234 253.188C126.406 253.557 126.503 253.958 126.523 254.391H125.633C125.612 254.073 125.536 253.781 125.406 253.516C125.281 253.245 125.112 253.01 124.898 252.812C124.68 252.62 124.424 252.469 124.133 252.359C123.846 252.25 123.534 252.195 123.195 252.195C122.706 252.195 122.286 252.294 121.938 252.492C121.594 252.69 121.312 252.948 121.094 253.266C120.875 253.594 120.714 253.961 120.609 254.367C120.51 254.773 120.461 255.188 120.461 255.609V255.938C120.461 256.365 120.51 256.784 120.609 257.195C120.714 257.602 120.875 257.964 121.094 258.281C121.312 258.604 121.594 258.865 121.938 259.062C122.286 259.26 122.708 259.359 123.203 259.359Z" fill="white"/>
<path d="M58.2188 333.18H59.8047V334.359H58.2188V337H56.7734V334.359H51.5859V333.508L56.6797 325.625H58.2188V333.18ZM53.1875 333.18H56.7734V327.547L56.5391 327.984L53.1875 333.18ZM69.1094 332.648C69.1094 333.372 69.026 334.016 68.8594 334.578C68.6927 335.135 68.4531 335.604 68.1406 335.984C67.8281 336.37 67.4453 336.661 66.9922 336.859C66.5391 337.057 66.0208 337.156 65.4375 337.156C64.8594 337.156 64.3411 337.06 63.8828 336.867C63.4245 336.669 63.0365 336.375 62.7188 335.984C62.401 335.604 62.1589 335.135 61.9922 334.578C61.8255 334.016 61.7422 333.372 61.7422 332.648V329.984C61.7422 329.26 61.8255 328.62 61.9922 328.062C62.1589 327.5 62.401 327.026 62.7188 326.641C63.0312 326.255 63.4141 325.964 63.8672 325.766C64.3255 325.562 64.8438 325.461 65.4219 325.461C66.0052 325.461 66.5234 325.562 66.9766 325.766C67.4349 325.964 67.8229 326.255 68.1406 326.641C68.4531 327.026 68.6927 327.5 68.8594 328.062C69.026 328.62 69.1094 329.26 69.1094 329.984V332.648ZM63.1953 332.359L67.625 328.961C67.5833 328.586 67.5078 328.255 67.3984 327.969C67.2943 327.677 67.151 327.435 66.9688 327.242C66.7917 327.044 66.5729 326.896 66.3125 326.797C66.0573 326.698 65.7604 326.648 65.4219 326.648C65.0781 326.648 64.7734 326.703 64.5078 326.812C64.2474 326.917 64.026 327.07 63.8438 327.273C63.625 327.529 63.4609 327.859 63.3516 328.266C63.2474 328.667 63.1953 329.133 63.1953 329.664V331.57C63.1953 331.701 63.1953 331.831 63.1953 331.961C63.1953 332.091 63.1953 332.224 63.1953 332.359ZM67.6562 332.953V331.344C67.6562 331.266 67.6562 331.117 67.6562 330.898C67.6562 330.674 67.6562 330.49 67.6562 330.344L63.2344 333.727C63.2812 334.107 63.3646 334.443 63.4844 334.734C63.6042 335.021 63.7604 335.258 63.9531 335.445C64.1302 335.622 64.3438 335.758 64.5938 335.852C64.8438 335.94 65.125 335.984 65.4375 335.984C65.7656 335.984 66.0573 335.935 66.3125 335.836C66.5677 335.737 66.7839 335.594 66.9609 335.406C67.2005 335.151 67.375 334.818 67.4844 334.406C67.599 333.995 67.6562 333.51 67.6562 332.953ZM72.3438 328.086C72.3438 327.706 72.4062 327.357 72.5312 327.039C72.6562 326.716 72.8359 326.438 73.0703 326.203C73.2995 325.974 73.5781 325.794 73.9062 325.664C74.2344 325.534 74.6042 325.469 75.0156 325.469C75.4271 325.469 75.7969 325.534 76.125 325.664C76.4583 325.794 76.7422 325.974 76.9766 326.203C77.2057 326.438 77.3802 326.716 77.5 327.039C77.625 327.357 77.6875 327.706 77.6875 328.086V329C77.6875 329.375 77.625 329.724 77.5 330.047C77.3802 330.365 77.2057 330.638 76.9766 330.867C76.7474 331.102 76.4688 331.284 76.1406 331.414C75.8125 331.544 75.4427 331.609 75.0312 331.609C74.6146 331.609 74.2396 331.544 73.9062 331.414C73.5781 331.284 73.2995 331.102 73.0703 330.867C72.8359 330.638 72.6562 330.365 72.5312 330.047C72.4062 329.724 72.3438 329.375 72.3438 329V328.086ZM73.6172 329C73.6172 329.219 73.6458 329.422 73.7031 329.609C73.7604 329.792 73.849 329.951 73.9688 330.086C74.0833 330.221 74.2292 330.328 74.4062 330.406C74.5833 330.484 74.7917 330.523 75.0312 330.523C75.2604 330.523 75.4609 330.484 75.6328 330.406C75.8099 330.328 75.9557 330.221 76.0703 330.086C76.1849 329.951 76.2708 329.792 76.3281 329.609C76.3906 329.422 76.4219 329.219 76.4219 329V328.086C76.4219 327.872 76.3906 327.674 76.3281 327.492C76.2708 327.305 76.1849 327.141 76.0703 327C75.9505 326.865 75.8021 326.758 75.625 326.68C75.4531 326.602 75.25 326.562 75.0156 326.562C74.7812 326.562 74.5755 326.602 74.3984 326.68C74.2266 326.758 74.0833 326.865 73.9688 327C73.849 327.141 73.7604 327.305 73.7031 327.492C73.6458 327.674 73.6172 327.872 73.6172 328.086V329ZM88.5547 333.578C88.487 334.104 88.3516 334.589 88.1484 335.031C87.9453 335.469 87.6823 335.844 87.3594 336.156C87.0312 336.474 86.6432 336.721 86.1953 336.898C85.7526 337.07 85.2578 337.156 84.7109 337.156C84.2422 337.156 83.8151 337.091 83.4297 336.961C83.0495 336.826 82.7109 336.641 82.4141 336.406C82.112 336.172 81.8516 335.896 81.6328 335.578C81.4193 335.26 81.2422 334.914 81.1016 334.539C80.9557 334.164 80.8464 333.771 80.7734 333.359C80.7057 332.948 80.6693 332.531 80.6641 332.109V330.523C80.6693 330.102 80.7057 329.685 80.7734 329.273C80.8464 328.862 80.9557 328.469 81.1016 328.094C81.2422 327.719 81.4193 327.372 81.6328 327.055C81.8516 326.732 82.112 326.453 82.4141 326.219C82.7109 325.984 83.0495 325.802 83.4297 325.672C83.8099 325.536 84.237 325.469 84.7109 325.469C85.2786 325.469 85.7865 325.557 86.2344 325.734C86.6823 325.906 87.0677 326.151 87.3906 326.469C87.7135 326.792 87.9714 327.177 88.1641 327.625C88.362 328.073 88.4922 328.568 88.5547 329.109H87.1094C87.0625 328.766 86.9818 328.445 86.8672 328.148C86.7526 327.852 86.599 327.591 86.4062 327.367C86.2135 327.143 85.9766 326.969 85.6953 326.844C85.4193 326.714 85.0911 326.648 84.7109 326.648C84.3672 326.648 84.0625 326.706 83.7969 326.82C83.5365 326.93 83.3125 327.081 83.125 327.273C82.9323 327.466 82.7708 327.69 82.6406 327.945C82.5156 328.201 82.4141 328.471 82.3359 328.758C82.2578 329.044 82.2005 329.339 82.1641 329.641C82.1328 329.938 82.1172 330.227 82.1172 330.508V332.109C82.1172 332.391 82.1328 332.682 82.1641 332.984C82.2005 333.281 82.2578 333.573 82.3359 333.859C82.4141 334.151 82.5156 334.424 82.6406 334.68C82.7656 334.935 82.9245 335.159 83.1172 335.352C83.3099 335.549 83.5365 335.706 83.7969 335.82C84.0573 335.93 84.362 335.984 84.7109 335.984C85.0911 335.984 85.4193 335.924 85.6953 335.805C85.9766 335.685 86.2135 335.516 86.4062 335.297C86.599 335.083 86.7526 334.831 86.8672 334.539C86.9818 334.242 87.0625 333.922 87.1094 333.578H88.5547ZM103.828 326.5V328.547H107.047V329.664H103.828V334.258C103.828 334.586 103.87 334.857 103.953 335.07C104.036 335.284 104.151 335.453 104.297 335.578C104.443 335.708 104.609 335.799 104.797 335.852C104.99 335.904 105.193 335.93 105.406 335.93C105.562 335.93 105.724 335.922 105.891 335.906C106.057 335.885 106.221 335.862 106.383 335.836C106.539 335.81 106.685 335.784 106.82 335.758C106.961 335.727 107.076 335.701 107.164 335.68L107.367 336.703C107.247 336.776 107.102 336.841 106.93 336.898C106.758 336.951 106.57 336.995 106.367 337.031C106.164 337.073 105.948 337.104 105.719 337.125C105.495 337.146 105.271 337.156 105.047 337.156C104.672 337.156 104.32 337.104 103.992 337C103.669 336.891 103.388 336.719 103.148 336.484C102.909 336.255 102.719 335.958 102.578 335.594C102.443 335.224 102.375 334.779 102.375 334.258V329.664H100.156V328.547H102.375V326.5H103.828ZM109.609 332.695C109.609 332.086 109.698 331.521 109.875 331C110.052 330.474 110.307 330.018 110.641 329.633C110.969 329.247 111.37 328.945 111.844 328.727C112.318 328.503 112.852 328.391 113.445 328.391C114.044 328.391 114.581 328.503 115.055 328.727C115.534 328.945 115.94 329.247 116.273 329.633C116.602 330.018 116.854 330.474 117.031 331C117.208 331.521 117.297 332.086 117.297 332.695V332.867C117.297 333.477 117.208 334.042 117.031 334.562C116.854 335.083 116.602 335.536 116.273 335.922C115.94 336.307 115.536 336.609 115.062 336.828C114.589 337.047 114.055 337.156 113.461 337.156C112.862 337.156 112.323 337.047 111.844 336.828C111.37 336.609 110.969 336.307 110.641 335.922C110.307 335.536 110.052 335.083 109.875 334.562C109.698 334.042 109.609 333.477 109.609 332.867V332.695ZM111.055 332.867C111.055 333.284 111.104 333.682 111.203 334.062C111.302 334.438 111.453 334.768 111.656 335.055C111.854 335.341 112.104 335.568 112.406 335.734C112.708 335.901 113.06 335.984 113.461 335.984C113.857 335.984 114.203 335.901 114.5 335.734C114.802 335.568 115.055 335.341 115.258 335.055C115.456 334.768 115.604 334.438 115.703 334.062C115.802 333.682 115.852 333.284 115.852 332.867V332.695C115.852 332.284 115.799 331.891 115.695 331.516C115.596 331.135 115.448 330.802 115.25 330.516C115.047 330.229 114.794 330.003 114.492 329.836C114.195 329.664 113.846 329.578 113.445 329.578C113.044 329.578 112.695 329.664 112.398 329.836C112.102 330.003 111.854 330.229 111.656 330.516C111.453 330.802 111.302 331.135 111.203 331.516C111.104 331.891 111.055 332.284 111.055 332.695V332.867ZM129.75 331.297L130.32 325.625H136.156V327.031H131.539L131.219 330.062C131.443 329.932 131.711 329.818 132.023 329.719C132.336 329.62 132.698 329.57 133.109 329.57C133.635 329.57 134.107 329.661 134.523 329.844C134.94 330.026 135.294 330.281 135.586 330.609C135.878 330.943 136.102 331.344 136.258 331.812C136.414 332.281 136.492 332.802 136.492 333.375C136.492 333.917 136.419 334.419 136.273 334.883C136.128 335.346 135.909 335.745 135.617 336.078C135.32 336.417 134.948 336.682 134.5 336.875C134.052 337.062 133.526 337.156 132.922 337.156C132.458 337.156 132.021 337.091 131.609 336.961C131.198 336.831 130.833 336.635 130.516 336.375C130.193 336.115 129.927 335.786 129.719 335.391C129.516 334.995 129.388 334.534 129.336 334.008H130.711C130.799 334.654 131.036 335.143 131.422 335.477C131.812 335.81 132.312 335.977 132.922 335.977C133.266 335.977 133.57 335.917 133.836 335.797C134.102 335.672 134.326 335.495 134.508 335.266C134.685 335.042 134.818 334.771 134.906 334.453C135 334.135 135.047 333.781 135.047 333.391C135.047 333.036 134.995 332.706 134.891 332.398C134.792 332.091 134.646 331.823 134.453 331.594C134.26 331.37 134.023 331.193 133.742 331.062C133.461 330.932 133.138 330.867 132.773 330.867C132.534 330.867 132.326 330.885 132.148 330.922C131.977 330.953 131.82 331 131.68 331.062C131.539 331.125 131.406 331.201 131.281 331.289C131.161 331.378 131.036 331.479 130.906 331.594L129.75 331.297ZM145.984 332.648C145.984 333.372 145.901 334.016 145.734 334.578C145.568 335.135 145.328 335.604 145.016 335.984C144.703 336.37 144.32 336.661 143.867 336.859C143.414 337.057 142.896 337.156 142.312 337.156C141.734 337.156 141.216 337.06 140.758 336.867C140.299 336.669 139.911 336.375 139.594 335.984C139.276 335.604 139.034 335.135 138.867 334.578C138.701 334.016 138.617 333.372 138.617 332.648V329.984C138.617 329.26 138.701 328.62 138.867 328.062C139.034 327.5 139.276 327.026 139.594 326.641C139.906 326.255 140.289 325.964 140.742 325.766C141.201 325.562 141.719 325.461 142.297 325.461C142.88 325.461 143.398 325.562 143.852 325.766C144.31 325.964 144.698 326.255 145.016 326.641C145.328 327.026 145.568 327.5 145.734 328.062C145.901 328.62 145.984 329.26 145.984 329.984V332.648ZM140.07 332.359L144.5 328.961C144.458 328.586 144.383 328.255 144.273 327.969C144.169 327.677 144.026 327.435 143.844 327.242C143.667 327.044 143.448 326.896 143.188 326.797C142.932 326.698 142.635 326.648 142.297 326.648C141.953 326.648 141.648 326.703 141.383 326.812C141.122 326.917 140.901 327.07 140.719 327.273C140.5 327.529 140.336 327.859 140.227 328.266C140.122 328.667 140.07 329.133 140.07 329.664V331.57C140.07 331.701 140.07 331.831 140.07 331.961C140.07 332.091 140.07 332.224 140.07 332.359ZM144.531 332.953V331.344C144.531 331.266 144.531 331.117 144.531 330.898C144.531 330.674 144.531 330.49 144.531 330.344L140.109 333.727C140.156 334.107 140.24 334.443 140.359 334.734C140.479 335.021 140.635 335.258 140.828 335.445C141.005 335.622 141.219 335.758 141.469 335.852C141.719 335.94 142 335.984 142.312 335.984C142.641 335.984 142.932 335.935 143.188 335.836C143.443 335.737 143.659 335.594 143.836 335.406C144.076 335.151 144.25 334.818 144.359 334.406C144.474 333.995 144.531 333.51 144.531 332.953ZM149.219 328.086C149.219 327.706 149.281 327.357 149.406 327.039C149.531 326.716 149.711 326.438 149.945 326.203C150.174 325.974 150.453 325.794 150.781 325.664C151.109 325.534 151.479 325.469 151.891 325.469C152.302 325.469 152.672 325.534 153 325.664C153.333 325.794 153.617 325.974 153.852 326.203C154.081 326.438 154.255 326.716 154.375 327.039C154.5 327.357 154.562 327.706 154.562 328.086V329C154.562 329.375 154.5 329.724 154.375 330.047C154.255 330.365 154.081 330.638 153.852 330.867C153.622 331.102 153.344 331.284 153.016 331.414C152.688 331.544 152.318 331.609 151.906 331.609C151.49 331.609 151.115 331.544 150.781 331.414C150.453 331.284 150.174 331.102 149.945 330.867C149.711 330.638 149.531 330.365 149.406 330.047C149.281 329.724 149.219 329.375 149.219 329V328.086ZM150.492 329C150.492 329.219 150.521 329.422 150.578 329.609C150.635 329.792 150.724 329.951 150.844 330.086C150.958 330.221 151.104 330.328 151.281 330.406C151.458 330.484 151.667 330.523 151.906 330.523C152.135 330.523 152.336 330.484 152.508 330.406C152.685 330.328 152.831 330.221 152.945 330.086C153.06 329.951 153.146 329.792 153.203 329.609C153.266 329.422 153.297 329.219 153.297 329V328.086C153.297 327.872 153.266 327.674 153.203 327.492C153.146 327.305 153.06 327.141 152.945 327C152.826 326.865 152.677 326.758 152.5 326.68C152.328 326.602 152.125 326.562 151.891 326.562C151.656 326.562 151.451 326.602 151.273 326.68C151.102 326.758 150.958 326.865 150.844 327C150.724 327.141 150.635 327.305 150.578 327.492C150.521 327.674 150.492 327.872 150.492 328.086V329ZM165.43 333.578C165.362 334.104 165.227 334.589 165.023 335.031C164.82 335.469 164.557 335.844 164.234 336.156C163.906 336.474 163.518 336.721 163.07 336.898C162.628 337.07 162.133 337.156 161.586 337.156C161.117 337.156 160.69 337.091 160.305 336.961C159.924 336.826 159.586 336.641 159.289 336.406C158.987 336.172 158.727 335.896 158.508 335.578C158.294 335.26 158.117 334.914 157.977 334.539C157.831 334.164 157.721 333.771 157.648 333.359C157.581 332.948 157.544 332.531 157.539 332.109V330.523C157.544 330.102 157.581 329.685 157.648 329.273C157.721 328.862 157.831 328.469 157.977 328.094C158.117 327.719 158.294 327.372 158.508 327.055C158.727 326.732 158.987 326.453 159.289 326.219C159.586 325.984 159.924 325.802 160.305 325.672C160.685 325.536 161.112 325.469 161.586 325.469C162.154 325.469 162.661 325.557 163.109 325.734C163.557 325.906 163.943 326.151 164.266 326.469C164.589 326.792 164.846 327.177 165.039 327.625C165.237 328.073 165.367 328.568 165.43 329.109H163.984C163.938 328.766 163.857 328.445 163.742 328.148C163.628 327.852 163.474 327.591 163.281 327.367C163.089 327.143 162.852 326.969 162.57 326.844C162.294 326.714 161.966 326.648 161.586 326.648C161.242 326.648 160.938 326.706 160.672 326.82C160.411 326.93 160.188 327.081 160 327.273C159.807 327.466 159.646 327.69 159.516 327.945C159.391 328.201 159.289 328.471 159.211 328.758C159.133 329.044 159.076 329.339 159.039 329.641C159.008 329.938 158.992 330.227 158.992 330.508V332.109C158.992 332.391 159.008 332.682 159.039 332.984C159.076 333.281 159.133 333.573 159.211 333.859C159.289 334.151 159.391 334.424 159.516 334.68C159.641 334.935 159.799 335.159 159.992 335.352C160.185 335.549 160.411 335.706 160.672 335.82C160.932 335.93 161.237 335.984 161.586 335.984C161.966 335.984 162.294 335.924 162.57 335.805C162.852 335.685 163.089 335.516 163.281 335.297C163.474 335.083 163.628 334.831 163.742 334.539C163.857 334.242 163.938 333.922 163.984 333.578H165.43Z" fill="white"/>
<path d="M51.928 311V301.704C51.928 301.299 52.0293 300.931 52.232 300.6C52.4347 300.259 52.7013 299.987 53.032 299.784C53.3733 299.581 53.7467 299.48 54.152 299.48H61.208C61.6133 299.48 61.9867 299.581 62.328 299.784C62.6693 299.987 62.9413 300.259 63.144 300.6C63.3467 300.931 63.448 301.299 63.448 301.704V311H61.32V307.128H54.04V311H51.928ZM54.04 305.016H61.32V301.8C61.32 301.747 61.2987 301.704 61.256 301.672C61.2133 301.629 61.1653 301.608 61.112 301.608H54.232C54.1787 301.608 54.1307 301.629 54.088 301.672C54.056 301.704 54.04 301.747 54.04 301.8V305.016ZM69.815 311L64.711 301.72H67.127L70.791 308.456L74.439 301.72H76.855L71.735 311H69.815ZM79.5553 311C79.1499 311 78.7819 310.899 78.4513 310.696C78.1206 310.493 77.8539 310.227 77.6513 309.896C77.4486 309.565 77.3473 309.197 77.3473 308.792V303.928C77.3473 303.523 77.4486 303.155 77.6513 302.824C77.8539 302.493 78.1206 302.227 78.4513 302.024C78.7819 301.821 79.1499 301.72 79.5553 301.72H84.5633C84.9686 301.72 85.3366 301.821 85.6673 302.024C86.0086 302.227 86.2753 302.493 86.4673 302.824C86.6699 303.155 86.7713 303.523 86.7713 303.928V307.416H79.4433V308.712C79.4433 308.765 79.4593 308.813 79.4913 308.856C79.5339 308.888 79.5819 308.904 79.6353 308.904H86.7713V311H79.5553ZM79.4433 305.528H84.6753V304.008C84.6753 303.955 84.6539 303.912 84.6112 303.88C84.5793 303.837 84.5366 303.816 84.4833 303.816H79.6353C79.5819 303.816 79.5339 303.837 79.4913 303.88C79.4593 303.912 79.4433 303.955 79.4433 304.008V305.528ZM88.3476 311V303.928C88.3476 303.523 88.449 303.155 88.6516 302.824C88.8543 302.493 89.121 302.227 89.4516 302.024C89.793 301.821 90.161 301.72 90.5556 301.72H95.7076V303.816H90.6356C90.5823 303.816 90.5343 303.837 90.4916 303.88C90.4596 303.912 90.4436 303.955 90.4436 304.008V311H88.3476ZM99.1338 311C98.7284 311 98.3551 310.899 98.0138 310.696C97.6831 310.493 97.4164 310.227 97.2138 309.896C97.0218 309.565 96.9258 309.197 96.9258 308.792V305.304H104.254V304.008C104.254 303.955 104.232 303.912 104.19 303.88C104.158 303.837 104.115 303.816 104.062 303.816H96.9258V301.72H104.142C104.547 301.72 104.915 301.821 105.246 302.024C105.587 302.227 105.854 302.493 106.046 302.824C106.248 303.155 106.35 303.523 106.35 303.928V311H99.1338ZM99.2138 308.904H104.254V307.192H99.0218V308.712C99.0218 308.765 99.0378 308.813 99.0698 308.856C99.1124 308.888 99.1604 308.904 99.2138 308.904ZM109.302 314.664V312.552H114.886C114.939 312.552 114.982 312.531 115.014 312.488C115.056 312.456 115.078 312.413 115.078 312.36V311H109.958C109.563 311 109.195 310.899 108.854 310.696C108.523 310.493 108.256 310.227 108.054 309.896C107.851 309.565 107.75 309.197 107.75 308.792V303.928C107.75 303.523 107.851 303.155 108.054 302.824C108.256 302.493 108.523 302.227 108.854 302.024C109.195 301.821 109.563 301.72 109.958 301.72H114.982C115.387 301.72 115.755 301.821 116.086 302.024C116.416 302.227 116.678 302.493 116.87 302.824C117.072 303.155 117.174 303.523 117.174 303.928V312.456C117.174 312.872 117.078 313.245 116.886 313.576C116.694 313.907 116.427 314.168 116.086 314.36C115.755 314.563 115.387 314.664 114.982 314.664H109.302ZM110.038 308.904H114.886C114.939 308.904 114.982 308.888 115.014 308.856C115.056 308.813 115.078 308.765 115.078 308.712V304.008C115.078 303.955 115.056 303.912 115.014 303.88C114.982 303.837 114.939 303.816 114.886 303.816H110.038C109.984 303.816 109.936 303.837 109.894 303.88C109.862 303.912 109.846 303.955 109.846 304.008V308.712C109.846 308.765 109.862 308.813 109.894 308.856C109.936 308.888 109.984 308.904 110.038 308.904ZM120.712 311C120.306 311 119.938 310.899 119.608 310.696C119.277 310.493 119.01 310.227 118.808 309.896C118.605 309.565 118.504 309.197 118.504 308.792V303.928C118.504 303.523 118.605 303.155 118.808 302.824C119.01 302.493 119.277 302.227 119.608 302.024C119.938 301.821 120.306 301.72 120.712 301.72H125.72C126.125 301.72 126.493 301.821 126.824 302.024C127.165 302.227 127.432 302.493 127.624 302.824C127.826 303.155 127.928 303.523 127.928 303.928V307.416H120.6V308.712C120.6 308.765 120.616 308.813 120.648 308.856C120.69 308.888 120.738 308.904 120.792 308.904H127.928V311H120.712ZM120.6 305.528H125.832V304.008C125.832 303.955 125.81 303.912 125.767 303.88C125.736 303.837 125.693 303.816 125.64 303.816H120.792C120.738 303.816 120.69 303.837 120.648 303.88C120.616 303.912 120.6 303.955 120.6 304.008V305.528ZM136.712 311C136.307 311 135.939 310.899 135.608 310.696C135.278 310.493 135.011 310.227 134.808 309.896C134.606 309.565 134.504 309.197 134.504 308.792V298.872H136.6V301.72H140.216V303.816H136.6V308.712C136.6 308.765 136.616 308.813 136.648 308.856C136.691 308.888 136.739 308.904 136.792 308.904H140.216V311H136.712ZM143.696 311C143.291 311 142.923 310.899 142.592 310.696C142.261 310.493 141.995 310.227 141.792 309.896C141.589 309.565 141.488 309.197 141.488 308.792V303.928C141.488 303.523 141.589 303.155 141.792 302.824C141.995 302.493 142.261 302.227 142.592 302.024C142.923 301.821 143.291 301.72 143.696 301.72H148.704C149.109 301.72 149.477 301.821 149.808 302.024C150.149 302.227 150.416 302.493 150.608 302.824C150.811 303.155 150.912 303.523 150.912 303.928V307.416H143.584V308.712C143.584 308.765 143.6 308.813 143.632 308.856C143.675 308.888 143.723 308.904 143.776 308.904H150.912V311H143.696ZM143.584 305.528H148.816V304.008C148.816 303.955 148.795 303.912 148.752 303.88C148.72 303.837 148.677 303.816 148.624 303.816H143.776C143.723 303.816 143.675 303.837 143.632 303.88C143.6 303.912 143.584 303.955 143.584 304.008V305.528ZM152.614 311V301.72H164.118C164.534 301.72 164.907 301.821 165.238 302.024C165.569 302.227 165.83 302.493 166.022 302.824C166.225 303.155 166.326 303.523 166.326 303.928V311H164.246V304.008C164.246 303.955 164.225 303.912 164.182 303.88C164.139 303.837 164.091 303.816 164.038 303.816H160.726C160.673 303.816 160.625 303.837 160.582 303.88C160.55 303.912 160.534 303.955 160.534 304.008V311H158.422V304.008C158.422 303.955 158.401 303.912 158.358 303.88C158.326 303.837 158.283 303.816 158.23 303.816H154.902C154.849 303.816 154.801 303.837 154.758 303.88C154.726 303.912 154.71 303.955 154.71 304.008V311H152.614ZM167.63 314.68V301.72H174.846C175.251 301.72 175.619 301.821 175.95 302.024C176.291 302.227 176.558 302.493 176.75 302.824C176.952 303.155 177.054 303.523 177.054 303.928V308.792C177.054 309.197 176.952 309.565 176.75 309.896C176.558 310.227 176.291 310.493 175.95 310.696C175.619 310.899 175.251 311 174.846 311H169.726V314.68H167.63ZM169.918 308.904H174.766C174.819 308.904 174.862 308.888 174.894 308.856C174.936 308.813 174.958 308.765 174.958 308.712V304.008C174.958 303.955 174.936 303.912 174.894 303.88C174.862 303.837 174.819 303.816 174.766 303.816H169.918C169.864 303.816 169.816 303.837 169.774 303.88C169.742 303.912 169.726 303.955 169.726 304.008V308.712C169.726 308.765 169.742 308.813 169.774 308.856C169.816 308.888 169.864 308.904 169.918 308.904ZM180.415 311C180.009 311 179.641 310.899 179.311 310.696C178.98 310.493 178.713 310.227 178.511 309.896C178.308 309.565 178.207 309.197 178.207 308.792V303.928C178.207 303.523 178.308 303.155 178.511 302.824C178.713 302.493 178.98 302.227 179.311 302.024C179.641 301.821 180.009 301.72 180.415 301.72H185.423C185.828 301.72 186.196 301.821 186.527 302.024C186.868 302.227 187.135 302.493 187.327 302.824C187.529 303.155 187.631 303.523 187.631 303.928V307.416H180.303V308.712C180.303 308.765 180.319 308.813 180.351 308.856C180.393 308.888 180.441 308.904 180.495 308.904H187.631V311H180.415ZM180.303 305.528H185.535V304.008C185.535 303.955 185.513 303.912 185.471 303.88C185.439 303.837 185.396 303.816 185.343 303.816H180.495C180.441 303.816 180.393 303.837 180.351 303.88C180.319 303.912 180.303 303.955 180.303 304.008V305.528ZM189.207 311V303.928C189.207 303.523 189.308 303.155 189.511 302.824C189.714 302.493 189.98 302.227 190.311 302.024C190.652 301.821 191.02 301.72 191.415 301.72H196.567V303.816H191.495C191.442 303.816 191.394 303.837 191.351 303.88C191.319 303.912 191.303 303.955 191.303 304.008V311H189.207ZM199.993 311C199.588 311 199.214 310.899 198.873 310.696C198.542 310.493 198.276 310.227 198.073 309.896C197.881 309.565 197.785 309.197 197.785 308.792V305.304H205.113V304.008C205.113 303.955 205.092 303.912 205.049 303.88C205.017 303.837 204.974 303.816 204.921 303.816H197.785V301.72H205.001C205.406 301.72 205.774 301.821 206.105 302.024C206.446 302.227 206.713 302.493 206.905 302.824C207.108 303.155 207.209 303.523 207.209 303.928V311H199.993ZM200.073 308.904H205.113V307.192H199.881V308.712C199.881 308.765 199.897 308.813 199.929 308.856C199.972 308.888 200.02 308.904 200.073 308.904ZM211.119 311C210.713 311 210.345 310.899 210.015 310.696C209.684 310.493 209.417 310.227 209.215 309.896C209.012 309.565 208.911 309.197 208.911 308.792V298.872H211.007V301.72H214.623V303.816H211.007V308.712C211.007 308.765 211.023 308.813 211.055 308.856C211.097 308.888 211.145 308.904 211.199 308.904H214.623V311H211.119ZM218.134 311C217.729 311 217.355 310.899 217.014 310.696C216.683 310.493 216.417 310.227 216.214 309.896C216.022 309.565 215.926 309.197 215.926 308.792V301.72H218.022V308.712C218.022 308.765 218.038 308.813 218.07 308.856C218.113 308.888 218.161 308.904 218.214 308.904H223.062C223.115 308.904 223.158 308.888 223.19 308.856C223.233 308.813 223.254 308.765 223.254 308.712V301.72H225.35V308.792C225.35 309.197 225.249 309.565 225.046 309.896C224.854 310.227 224.593 310.493 224.262 310.696C223.931 310.899 223.558 311 223.142 311H218.134ZM227.035 311V303.928C227.035 303.523 227.136 303.155 227.339 302.824C227.542 302.493 227.808 302.227 228.139 302.024C228.48 301.821 228.848 301.72 229.243 301.72H234.395V303.816H229.323C229.27 303.816 229.222 303.837 229.179 303.88C229.147 303.912 229.131 303.955 229.131 304.008V311H227.035ZM237.696 311C237.291 311 236.923 310.899 236.592 310.696C236.261 310.493 235.995 310.227 235.792 309.896C235.589 309.565 235.488 309.197 235.488 308.792V303.928C235.488 303.523 235.589 303.155 235.792 302.824C235.995 302.493 236.261 302.227 236.592 302.024C236.923 301.821 237.291 301.72 237.696 301.72H242.704C243.109 301.72 243.477 301.821 243.808 302.024C244.149 302.227 244.416 302.493 244.608 302.824C244.811 303.155 244.912 303.523 244.912 303.928V307.416H237.584V308.712C237.584 308.765 237.6 308.813 237.632 308.856C237.675 308.888 237.723 308.904 237.776 308.904H244.912V311H237.696ZM237.584 305.528H242.816V304.008C242.816 303.955 242.795 303.912 242.752 303.88C242.72 303.837 242.677 303.816 242.624 303.816H237.776C237.723 303.816 237.675 303.837 237.632 303.88C237.6 303.912 237.584 303.955 237.584 304.008V305.528ZM251.585 307.32V305.224H258.129V307.32H251.585Z" fill="white"/>
<path d="M51.928 159V147.48H61.208C61.6133 147.48 61.9867 147.581 62.328 147.784C62.6693 147.987 62.9413 148.259 63.144 148.6C63.3467 148.931 63.448 149.299 63.448 149.704V156.776C63.448 157.181 63.3467 157.555 63.144 157.896C62.9413 158.227 62.6693 158.493 62.328 158.696C61.9867 158.899 61.6133 159 61.208 159H51.928ZM54.216 156.872H61.112C61.1653 156.872 61.2133 156.856 61.256 156.824C61.2987 156.781 61.32 156.733 61.32 156.68V149.8C61.32 149.747 61.2987 149.704 61.256 149.672C61.2133 149.629 61.1653 149.608 61.112 149.608H54.216C54.1627 149.608 54.1147 149.629 54.072 149.672C54.04 149.704 54.024 149.747 54.024 149.8V156.68C54.024 156.733 54.04 156.781 54.072 156.824C54.1147 156.856 54.1627 156.872 54.216 156.872ZM65.0664 159V149.72H67.1624V159H65.0664ZM65.0664 148.792V146.68H67.1624V148.792H65.0664ZM71.1948 159C70.7894 159 70.4214 158.899 70.0908 158.696C69.7601 158.493 69.4934 158.227 69.2908 157.896C69.0881 157.565 68.9868 157.197 68.9868 156.792V156.44H71.0828V156.712C71.0828 156.765 71.0988 156.813 71.1308 156.856C71.1734 156.888 71.2214 156.904 71.2748 156.904H76.1228C76.1761 156.904 76.2188 156.888 76.2508 156.856C76.2934 156.813 76.3148 156.765 76.3148 156.712V155.608C76.3148 155.555 76.2934 155.512 76.2508 155.48C76.2188 155.437 76.1761 155.416 76.1228 155.416H71.1948C70.7894 155.416 70.4214 155.315 70.0908 155.112C69.7601 154.909 69.4934 154.643 69.2908 154.312C69.0881 153.981 68.9868 153.613 68.9868 153.208V151.928C68.9868 151.523 69.0881 151.155 69.2908 150.824C69.4934 150.493 69.7601 150.227 70.0908 150.024C70.4214 149.821 70.7894 149.72 71.1948 149.72H76.2028C76.6188 149.72 76.9921 149.821 77.3228 150.024C77.6534 150.227 77.9201 150.493 78.1228 150.824C78.3254 151.155 78.4268 151.523 78.4268 151.928V152.28H76.3148V152.008C76.3148 151.955 76.2934 151.912 76.2508 151.88C76.2188 151.837 76.1761 151.816 76.1228 151.816H71.2748C71.2214 151.816 71.1734 151.837 71.1308 151.88C71.0988 151.912 71.0828 151.955 71.0828 152.008V153.112C71.0828 153.165 71.0988 153.213 71.1308 153.256C71.1734 153.288 71.2214 153.304 71.2748 153.304H76.2028C76.6188 153.304 76.9921 153.405 77.3228 153.608C77.6534 153.811 77.9201 154.077 78.1228 154.408C78.3254 154.739 78.4268 155.107 78.4268 155.512V156.792C78.4268 157.197 78.3254 157.565 78.1228 157.896C77.9201 158.227 77.6534 158.493 77.3228 158.696C76.9921 158.899 76.6188 159 76.2028 159H71.1948ZM82.2435 159C81.8382 159 81.4702 158.899 81.1395 158.696C80.8088 158.493 80.5422 158.227 80.3395 157.896C80.1368 157.565 80.0355 157.197 80.0355 156.792V146.872H82.1315V149.72H85.7475V151.816H82.1315V156.712C82.1315 156.765 82.1475 156.813 82.1795 156.856C82.2222 156.888 82.2702 156.904 82.3235 156.904H85.7475V159H82.2435ZM89.5713 159C89.1659 159 88.7926 158.899 88.4513 158.696C88.1206 158.493 87.8539 158.227 87.6513 157.896C87.4593 157.565 87.3633 157.197 87.3633 156.792V153.304H94.6913V152.008C94.6913 151.955 94.6699 151.912 94.6273 151.88C94.5953 151.837 94.5526 151.816 94.4993 151.816H87.3633V149.72H94.5793C94.9846 149.72 95.3526 149.821 95.6833 150.024C96.0246 150.227 96.2913 150.493 96.4833 150.824C96.6859 151.155 96.7873 151.523 96.7873 151.928V159H89.5713ZM89.6513 156.904H94.6913V155.192H89.4593V156.712C89.4593 156.765 89.4753 156.813 89.5073 156.856C89.5499 156.888 89.5979 156.904 89.6513 156.904ZM98.3328 159V149.72H105.549C105.954 149.72 106.322 149.821 106.653 150.024C106.994 150.227 107.261 150.493 107.453 150.824C107.655 151.155 107.757 151.523 107.757 151.928V159H105.661V152.008C105.661 151.955 105.639 151.912 105.597 151.88C105.565 151.837 105.522 151.816 105.469 151.816H100.621C100.567 151.816 100.519 151.837 100.477 151.88C100.445 151.912 100.429 151.955 100.429 152.008V159H98.3328ZM111.258 159C110.853 159 110.485 158.899 110.154 158.696C109.824 158.493 109.557 158.227 109.354 157.896C109.152 157.565 109.05 157.197 109.05 156.792V151.928C109.05 151.523 109.152 151.155 109.354 150.824C109.557 150.493 109.824 150.227 110.154 150.024C110.485 149.821 110.853 149.72 111.258 149.72H118.458V151.816H111.338C111.285 151.816 111.237 151.837 111.194 151.88C111.162 151.912 111.146 151.955 111.146 152.008V156.712C111.146 156.765 111.162 156.813 111.194 156.856C111.237 156.888 111.285 156.904 111.338 156.904H118.474V159H111.258ZM121.977 159C121.572 159 121.204 158.899 120.873 158.696C120.542 158.493 120.276 158.227 120.073 157.896C119.87 157.565 119.769 157.197 119.769 156.792V151.928C119.769 151.523 119.87 151.155 120.073 150.824C120.276 150.493 120.542 150.227 120.873 150.024C121.204 149.821 121.572 149.72 121.977 149.72H126.985C127.39 149.72 127.758 149.821 128.089 150.024C128.43 150.227 128.697 150.493 128.889 150.824C129.092 151.155 129.193 151.523 129.193 151.928V155.416H121.865V156.712C121.865 156.765 121.881 156.813 121.913 156.856C121.956 156.888 122.004 156.904 122.057 156.904H129.193V159H121.977ZM121.865 153.528H127.097V152.008C127.097 151.955 127.076 151.912 127.033 151.88C127.001 151.837 126.958 151.816 126.905 151.816H122.057C122.004 151.816 121.956 151.837 121.913 151.88C121.881 151.912 121.865 151.955 121.865 152.008V153.528ZM135.866 155.32V153.224H142.41V155.32H135.866Z" fill="white"/>
<path d="M56.7969 184H55.8672V173.82L52.7109 175.164V174.266L56.6641 172.625H56.7969V184ZM63.75 177.805H64.7031C65.0677 177.799 65.4115 177.747 65.7344 177.648C66.0573 177.549 66.3385 177.406 66.5781 177.219C66.8177 177.031 67.0078 176.802 67.1484 176.531C67.2891 176.255 67.3594 175.94 67.3594 175.586C67.3594 175.216 67.3021 174.888 67.1875 174.602C67.0729 174.31 66.9115 174.065 66.7031 173.867C66.4948 173.674 66.2422 173.529 65.9453 173.43C65.6536 173.326 65.3281 173.273 64.9688 173.273C64.6094 173.273 64.2786 173.328 63.9766 173.438C63.6745 173.547 63.4141 173.703 63.1953 173.906C62.9766 174.115 62.8021 174.362 62.6719 174.648C62.5469 174.935 62.4792 175.255 62.4688 175.609H61.5391C61.5443 175.156 61.6328 174.74 61.8047 174.359C61.9818 173.974 62.2214 173.641 62.5234 173.359C62.8307 173.078 63.1901 172.859 63.6016 172.703C64.0182 172.547 64.474 172.469 64.9688 172.469C65.4531 172.469 65.8984 172.542 66.3047 172.688C66.7109 172.828 67.0625 173.031 67.3594 173.297C67.651 173.568 67.8776 173.898 68.0391 174.289C68.2057 174.68 68.2891 175.122 68.2891 175.617C68.2891 175.904 68.2422 176.177 68.1484 176.438C68.0547 176.698 67.9245 176.938 67.7578 177.156C67.5859 177.375 67.3776 177.573 67.1328 177.75C66.888 177.922 66.612 178.065 66.3047 178.18C66.6589 178.273 66.9714 178.406 67.2422 178.578C67.5182 178.75 67.75 178.953 67.9375 179.188C68.125 179.422 68.2656 179.685 68.3594 179.977C68.4531 180.263 68.5 180.573 68.5 180.906C68.5 181.417 68.4089 181.872 68.2266 182.273C68.0495 182.674 67.8047 183.013 67.4922 183.289C67.1797 183.57 66.8099 183.786 66.3828 183.938C65.9557 184.083 65.4974 184.156 65.0078 184.156C64.513 184.156 64.0443 184.083 63.6016 183.938C63.1641 183.786 62.7839 183.57 62.4609 183.289C62.1328 183.008 61.8698 182.669 61.6719 182.273C61.4792 181.872 61.3776 181.419 61.3672 180.914H62.2969C62.3073 181.289 62.3828 181.628 62.5234 181.93C62.6641 182.227 62.8542 182.482 63.0938 182.695C63.3333 182.909 63.6172 183.073 63.9453 183.188C64.2734 183.302 64.6276 183.359 65.0078 183.359C65.3828 183.359 65.7266 183.307 66.0391 183.203C66.3516 183.099 66.6224 182.945 66.8516 182.742C67.0755 182.539 67.25 182.289 67.375 181.992C67.5052 181.69 67.5703 181.339 67.5703 180.938C67.5703 180.521 67.4922 180.167 67.3359 179.875C67.1849 179.578 66.9818 179.336 66.7266 179.148C66.4609 178.961 66.1536 178.826 65.8047 178.742C65.4557 178.654 65.0885 178.607 64.7031 178.602H63.75V177.805ZM78.5469 175.555C78.5417 175.914 78.4766 176.247 78.3516 176.555C78.2266 176.862 78.0521 177.135 77.8281 177.375C77.6667 177.547 77.4844 177.701 77.2812 177.836C77.0781 177.966 76.8594 178.076 76.625 178.164C76.9375 178.268 77.2292 178.409 77.5 178.586C77.7708 178.763 78.0052 178.971 78.2031 179.211C78.401 179.451 78.5573 179.721 78.6719 180.023C78.7865 180.32 78.8438 180.641 78.8438 180.984C78.8438 181.5 78.7448 181.956 78.5469 182.352C78.3542 182.742 78.0938 183.07 77.7656 183.336C77.4323 183.607 77.0469 183.812 76.6094 183.953C76.1719 184.089 75.7109 184.156 75.2266 184.156C74.737 184.156 74.2708 184.089 73.8281 183.953C73.3906 183.818 73.0078 183.615 72.6797 183.344C72.3464 183.078 72.0833 182.75 71.8906 182.359C71.6979 181.964 71.6016 181.505 71.6016 180.984C71.6016 180.641 71.6562 180.32 71.7656 180.023C71.875 179.721 72.0286 179.451 72.2266 179.211C72.4193 178.971 72.6484 178.763 72.9141 178.586C73.1797 178.409 73.4688 178.268 73.7812 178.164C73.5104 178.055 73.2578 177.917 73.0234 177.75C72.7943 177.583 72.5964 177.388 72.4297 177.164C72.263 176.945 72.1328 176.701 72.0391 176.43C71.9453 176.159 71.8984 175.867 71.8984 175.555C71.8984 175.07 71.9818 174.638 72.1484 174.258C72.3151 173.872 72.5469 173.547 72.8438 173.281C73.1406 173.021 73.4896 172.82 73.8906 172.68C74.2969 172.539 74.7318 172.469 75.1953 172.469C75.6589 172.469 76.0938 172.539 76.5 172.68C76.9115 172.82 77.2682 173.021 77.5703 173.281C77.8724 173.547 78.1094 173.872 78.2812 174.258C78.4583 174.638 78.5469 175.07 78.5469 175.555ZM77.9062 180.992C77.9062 180.617 77.8333 180.279 77.6875 179.977C77.5417 179.674 77.3438 179.419 77.0938 179.211C76.849 179.003 76.5625 178.844 76.2344 178.734C75.9115 178.62 75.5703 178.562 75.2109 178.562C74.8464 178.562 74.5026 178.62 74.1797 178.734C73.8568 178.844 73.5755 179 73.3359 179.203C73.0911 179.417 72.8958 179.674 72.75 179.977C72.6094 180.279 72.5391 180.617 72.5391 180.992C72.5391 181.378 72.6094 181.719 72.75 182.016C72.8906 182.307 73.0833 182.552 73.3281 182.75C73.5729 182.953 73.8568 183.107 74.1797 183.211C74.5078 183.31 74.8568 183.359 75.2266 183.359C75.5859 183.359 75.9271 183.307 76.25 183.203C76.5781 183.099 76.8646 182.948 77.1094 182.75C77.349 182.552 77.5417 182.305 77.6875 182.008C77.8333 181.711 77.9062 181.372 77.9062 180.992ZM77.6094 175.547C77.6094 175.208 77.5443 174.898 77.4141 174.617C77.2839 174.336 77.112 174.096 76.8984 173.898C76.6745 173.701 76.4167 173.547 76.125 173.438C75.8333 173.328 75.5234 173.273 75.1953 173.273C74.8672 173.273 74.5599 173.326 74.2734 173.43C73.987 173.534 73.737 173.685 73.5234 173.883C73.3047 174.081 73.1328 174.32 73.0078 174.602C72.888 174.883 72.8281 175.198 72.8281 175.547C72.8281 175.896 72.8906 176.208 73.0156 176.484C73.1458 176.755 73.3203 176.984 73.5391 177.172C73.7526 177.365 74.0026 177.513 74.2891 177.617C74.5807 177.716 74.888 177.766 75.2109 177.766C75.5339 177.766 75.8411 177.716 76.1328 177.617C76.4245 177.513 76.6797 177.365 76.8984 177.172C77.1172 176.979 77.2891 176.747 77.4141 176.477C77.5443 176.201 77.6094 175.891 77.6094 175.547ZM94.0625 173.383V175.547H97.1953V176.32H94.0625V181.617C94.0677 181.945 94.1172 182.219 94.2109 182.438C94.3047 182.656 94.4349 182.831 94.6016 182.961C94.7682 183.096 94.9635 183.193 95.1875 183.25C95.4115 183.307 95.651 183.336 95.9062 183.336C96.0573 183.336 96.2083 183.331 96.3594 183.32C96.5104 183.305 96.6589 183.289 96.8047 183.273C96.9141 183.258 97.0208 183.242 97.125 183.227C97.2344 183.206 97.3281 183.188 97.4062 183.172L97.5469 183.883C97.4531 183.93 97.3438 183.969 97.2188 184C97.099 184.031 96.9714 184.057 96.8359 184.078C96.6641 184.109 96.4844 184.13 96.2969 184.141C96.1146 184.151 95.9323 184.156 95.75 184.156C95.375 184.156 95.026 184.109 94.7031 184.016C94.3854 183.927 94.1094 183.781 93.875 183.578C93.6406 183.38 93.4557 183.12 93.3203 182.797C93.1901 182.474 93.1224 182.081 93.1172 181.617V176.32H90.7656V175.547H93.1172V173.383H94.0625ZM106.148 175.391C106.378 175.391 106.609 175.406 106.844 175.438C107.083 175.464 107.284 175.503 107.445 175.555L107.32 176.461C107.107 176.414 106.891 176.378 106.672 176.352C106.453 176.326 106.229 176.312 106 176.312C105.604 176.312 105.232 176.359 104.883 176.453C104.539 176.542 104.229 176.682 103.953 176.875C103.688 177.062 103.456 177.299 103.258 177.586C103.065 177.867 102.917 178.203 102.812 178.594L102.82 184H101.859V175.547H102.75L102.805 176.852V177.227C103.133 176.648 103.581 176.198 104.148 175.875C104.716 175.547 105.383 175.385 106.148 175.391ZM110.383 175.547H114.305V183.164H117.18V184H110.383V183.164H113.375V176.383H110.383V175.547ZM113.102 173.234C113.102 173.135 113.115 173.042 113.141 172.953C113.167 172.865 113.211 172.786 113.273 172.719C113.331 172.656 113.404 172.609 113.492 172.578C113.581 172.542 113.685 172.523 113.805 172.523C113.924 172.523 114.029 172.542 114.117 172.578C114.206 172.609 114.276 172.656 114.328 172.719C114.391 172.781 114.438 172.857 114.469 172.945C114.5 173.034 114.516 173.13 114.516 173.234C114.516 173.422 114.458 173.583 114.344 173.719C114.229 173.854 114.049 173.922 113.805 173.922C113.555 173.922 113.375 173.854 113.266 173.719C113.156 173.583 113.102 173.422 113.102 173.234ZM119.992 172H123.93V183.164H126.789V184H119.992V183.164H123V172.836H119.992V172ZM129.602 175.547H133.523V183.164H136.398V184H129.602V183.164H132.594V176.383H129.602V175.547ZM132.32 173.234C132.32 173.135 132.333 173.042 132.359 172.953C132.385 172.865 132.43 172.786 132.492 172.719C132.549 172.656 132.622 172.609 132.711 172.578C132.799 172.542 132.904 172.523 133.023 172.523C133.143 172.523 133.247 172.542 133.336 172.578C133.424 172.609 133.495 172.656 133.547 172.719C133.609 172.781 133.656 172.857 133.688 172.945C133.719 173.034 133.734 173.13 133.734 173.234C133.734 173.422 133.677 173.583 133.562 173.719C133.448 173.854 133.268 173.922 133.023 173.922C132.773 173.922 132.594 173.854 132.484 173.719C132.375 173.583 132.32 173.422 132.32 173.234ZM138.516 179.648C138.516 179.076 138.602 178.531 138.773 178.016C138.945 177.5 139.193 177.049 139.516 176.664C139.839 176.273 140.232 175.964 140.695 175.734C141.159 175.505 141.688 175.391 142.281 175.391C142.87 175.391 143.396 175.505 143.859 175.734C144.328 175.964 144.727 176.271 145.055 176.656C145.372 177.047 145.617 177.5 145.789 178.016C145.961 178.531 146.049 179.076 146.055 179.648V179.906C146.049 180.479 145.961 181.023 145.789 181.539C145.622 182.049 145.378 182.5 145.055 182.891C144.732 183.276 144.339 183.583 143.875 183.812C143.411 184.042 142.885 184.156 142.297 184.156C141.703 184.156 141.172 184.044 140.703 183.82C140.234 183.591 139.841 183.281 139.523 182.891C139.195 182.505 138.945 182.055 138.773 181.539C138.602 181.023 138.516 180.479 138.516 179.906V179.648ZM139.445 179.906C139.445 180.354 139.508 180.786 139.633 181.203C139.758 181.62 139.94 181.987 140.18 182.305C140.419 182.628 140.716 182.885 141.07 183.078C141.424 183.266 141.833 183.359 142.297 183.359C142.755 183.359 143.159 183.266 143.508 183.078C143.857 182.885 144.154 182.628 144.398 182.305C144.633 181.982 144.81 181.615 144.93 181.203C145.055 180.786 145.12 180.354 145.125 179.906V179.648C145.12 179.206 145.055 178.776 144.93 178.359C144.805 177.943 144.625 177.576 144.391 177.258C144.146 176.935 143.846 176.677 143.492 176.484C143.143 176.292 142.74 176.195 142.281 176.195C141.818 176.195 141.411 176.292 141.062 176.484C140.714 176.677 140.419 176.935 140.18 177.258C139.94 177.576 139.758 177.943 139.633 178.359C139.508 178.776 139.445 179.206 139.445 179.648V179.906ZM148.602 184V175.547H149.461L149.516 177.188C149.646 176.943 149.799 176.716 149.977 176.508C150.154 176.299 150.352 176.12 150.57 175.969C150.826 175.792 151.107 175.651 151.414 175.547C151.727 175.443 152.057 175.391 152.406 175.391C152.87 175.391 153.279 175.461 153.633 175.602C153.992 175.742 154.292 175.948 154.531 176.219C154.776 176.495 154.961 176.831 155.086 177.227C155.211 177.622 155.273 178.073 155.273 178.578V184H154.344V178.594C154.339 178.208 154.292 177.867 154.203 177.57C154.12 177.273 153.99 177.023 153.812 176.82C153.63 176.617 153.404 176.464 153.133 176.359C152.867 176.255 152.549 176.206 152.18 176.211C151.857 176.211 151.552 176.268 151.266 176.383C150.979 176.492 150.719 176.641 150.484 176.828C150.266 177.005 150.076 177.216 149.914 177.461C149.753 177.701 149.628 177.956 149.539 178.227V184H148.602ZM167.852 175.547L167.875 176.5C168.042 176.172 168.273 175.909 168.57 175.711C168.872 175.508 169.255 175.401 169.719 175.391C169.974 175.391 170.198 175.422 170.391 175.484C170.583 175.542 170.75 175.625 170.891 175.734C171.01 175.828 171.112 175.943 171.195 176.078C171.284 176.208 171.354 176.349 171.406 176.5C171.484 176.354 171.581 176.216 171.695 176.086C171.81 175.956 171.94 175.841 172.086 175.742C172.247 175.638 172.43 175.555 172.633 175.492C172.836 175.424 173.06 175.391 173.305 175.391C173.659 175.391 173.961 175.453 174.211 175.578C174.461 175.698 174.656 175.862 174.797 176.07C174.953 176.279 175.065 176.526 175.133 176.812C175.201 177.099 175.234 177.401 175.234 177.719L175.227 184H174.344L174.336 177.711C174.336 177.534 174.318 177.354 174.281 177.172C174.25 176.984 174.188 176.818 174.094 176.672C174 176.531 173.872 176.419 173.711 176.336C173.549 176.247 173.341 176.206 173.086 176.211C172.826 176.216 172.604 176.258 172.422 176.336C172.245 176.409 172.099 176.505 171.984 176.625C171.865 176.745 171.771 176.88 171.703 177.031C171.641 177.182 171.591 177.336 171.555 177.492C171.555 177.518 171.555 177.542 171.555 177.562C171.555 177.583 171.555 177.607 171.555 177.633L171.547 184H170.672L170.664 177.625C170.664 177.448 170.646 177.273 170.609 177.102C170.573 176.924 170.508 176.768 170.414 176.633C170.32 176.503 170.193 176.398 170.031 176.32C169.875 176.242 169.672 176.206 169.422 176.211C169.156 176.216 168.932 176.26 168.75 176.344C168.573 176.422 168.424 176.529 168.305 176.664C168.201 176.789 168.117 176.932 168.055 177.094C167.992 177.25 167.94 177.406 167.898 177.562L167.891 184H167.008V175.547H167.852ZM177.648 175.547H181.57V183.164H184.445V184H177.648V183.164H180.641V176.383H177.648V175.547ZM180.367 173.234C180.367 173.135 180.38 173.042 180.406 172.953C180.432 172.865 180.477 172.786 180.539 172.719C180.596 172.656 180.669 172.609 180.758 172.578C180.846 172.542 180.951 172.523 181.07 172.523C181.19 172.523 181.294 172.542 181.383 172.578C181.471 172.609 181.542 172.656 181.594 172.719C181.656 172.781 181.703 172.857 181.734 172.945C181.766 173.034 181.781 173.13 181.781 173.234C181.781 173.422 181.724 173.583 181.609 173.719C181.495 173.854 181.315 173.922 181.07 173.922C180.82 173.922 180.641 173.854 180.531 173.719C180.422 173.583 180.367 173.422 180.367 173.234ZM187.258 172H191.195V183.164H194.055V184H187.258V183.164H190.266V172.836H187.258V172ZM200.258 184.156C199.674 184.156 199.141 184.047 198.656 183.828C198.172 183.609 197.758 183.312 197.414 182.938C197.065 182.557 196.794 182.117 196.602 181.617C196.409 181.112 196.312 180.576 196.312 180.008V179.672C196.312 179.073 196.409 178.513 196.602 177.992C196.799 177.466 197.07 177.01 197.414 176.625C197.747 176.245 198.143 175.945 198.602 175.727C199.06 175.503 199.555 175.391 200.086 175.391C200.643 175.391 201.138 175.492 201.57 175.695C202.003 175.893 202.367 176.167 202.664 176.516C202.961 176.87 203.185 177.284 203.336 177.758C203.487 178.227 203.565 178.729 203.57 179.266V179.836H197.242V180.094C197.263 180.542 197.346 180.958 197.492 181.344C197.638 181.729 197.844 182.07 198.109 182.367C198.37 182.669 198.685 182.911 199.055 183.094C199.43 183.271 199.844 183.359 200.297 183.359C200.818 183.365 201.289 183.268 201.711 183.07C202.133 182.872 202.495 182.586 202.797 182.211L203.383 182.656C203.065 183.104 202.641 183.466 202.109 183.742C201.578 184.018 200.961 184.156 200.258 184.156ZM200.086 176.195C199.701 176.195 199.349 176.268 199.031 176.414C198.714 176.555 198.435 176.75 198.195 177C197.956 177.255 197.758 177.557 197.602 177.906C197.445 178.255 197.339 178.633 197.281 179.039H202.641V178.953C202.641 178.609 202.578 178.268 202.453 177.93C202.333 177.591 202.167 177.294 201.953 177.039C201.734 176.784 201.469 176.581 201.156 176.43C200.844 176.273 200.487 176.195 200.086 176.195ZM212.156 181.844C212.156 181.599 212.099 181.385 211.984 181.203C211.87 181.016 211.711 180.857 211.508 180.727C211.284 180.581 211.01 180.456 210.688 180.352C210.37 180.247 210.042 180.159 209.703 180.086C209.271 179.997 208.875 179.896 208.516 179.781C208.156 179.667 207.82 179.518 207.508 179.336C207.216 179.164 206.979 178.945 206.797 178.68C206.62 178.409 206.531 178.081 206.531 177.695C206.531 177.331 206.62 177.005 206.797 176.719C206.979 176.432 207.221 176.188 207.523 175.984C207.81 175.797 208.143 175.651 208.523 175.547C208.909 175.443 209.305 175.391 209.711 175.391C210.164 175.391 210.589 175.448 210.984 175.562C211.385 175.672 211.737 175.833 212.039 176.047C212.336 176.266 212.573 176.531 212.75 176.844C212.927 177.156 213.023 177.513 213.039 177.914H212.102C212.096 177.643 212.023 177.401 211.883 177.188C211.747 176.974 211.57 176.794 211.352 176.648C211.128 176.503 210.872 176.391 210.586 176.312C210.305 176.234 210.013 176.195 209.711 176.195C209.424 176.195 209.146 176.227 208.875 176.289C208.609 176.346 208.372 176.438 208.164 176.562C207.951 176.682 207.779 176.836 207.648 177.023C207.523 177.206 207.461 177.419 207.461 177.664C207.461 177.909 207.516 178.122 207.625 178.305C207.74 178.482 207.906 178.633 208.125 178.758C208.344 178.888 208.607 178.997 208.914 179.086C209.221 179.169 209.542 179.245 209.875 179.312C210.302 179.401 210.708 179.51 211.094 179.641C211.484 179.766 211.828 179.922 212.125 180.109C212.422 180.302 212.656 180.536 212.828 180.812C213 181.083 213.086 181.411 213.086 181.797C213.086 182.161 213.003 182.487 212.836 182.773C212.669 183.06 212.453 183.297 212.188 183.484C211.865 183.714 211.49 183.883 211.062 183.992C210.635 184.102 210.203 184.156 209.766 184.156C209.286 184.156 208.833 184.096 208.406 183.977C207.979 183.857 207.609 183.688 207.297 183.469C206.974 183.255 206.719 182.992 206.531 182.68C206.349 182.367 206.25 182.016 206.234 181.625H207.164C207.195 181.958 207.294 182.237 207.461 182.461C207.633 182.685 207.844 182.862 208.094 182.992C208.333 183.128 208.599 183.224 208.891 183.281C209.188 183.333 209.479 183.359 209.766 183.359C210.135 183.359 210.484 183.315 210.812 183.227C211.141 183.133 211.424 182.995 211.664 182.812C211.82 182.688 211.94 182.547 212.023 182.391C212.112 182.229 212.156 182.047 212.156 181.844Z" fill="white"/>
</svg>
