<svg width="1376" height="1028" viewBox="0 0 1376 1028" fill="none" xmlns="http://www.w3.org/2000/svg">
<rect x="10" y="1024" width="1024" height="1366" transform="rotate(-90 10 1024)" fill="#005995" fill-opacity="0.1"/>
<line x1="75.5" y1="1023" x2="69.5" y2="2.00295" stroke="#0092F4" stroke-opacity="0.1"/>
<line x1="513.5" y1="1023" x2="507.5" y2="2.00295" stroke="#0092F4" stroke-opacity="0.1"/>
<line x1="951.5" y1="1021" x2="945.5" y2="0.00294773" stroke="#0092F4" stroke-opacity="0.1"/>
<line x1="148.5" y1="1025" x2="142.5" y2="4.00295" stroke="#0092F4" stroke-opacity="0.1"/>
<line x1="586.5" y1="1025" x2="580.5" y2="4.00295" stroke="#0092F4" stroke-opacity="0.1"/>
<line x1="1024.5" y1="1023" x2="1018.5" y2="2.00295" stroke="#0092F4" stroke-opacity="0.1"/>
<line x1="221.5" y1="1025" x2="215.5" y2="4.00295" stroke="#0092F4" stroke-opacity="0.1"/>
<line x1="659.5" y1="1025" x2="653.5" y2="4.00295" stroke="#0092F4" stroke-opacity="0.1"/>
<line x1="1097.5" y1="1023" x2="1091.5" y2="2.00295" stroke="#0092F4" stroke-opacity="0.1"/>
<line x1="294.5" y1="1026" x2="288.5" y2="5.00295" stroke="#0092F4" stroke-opacity="0.1"/>
<line x1="732.5" y1="1026" x2="726.5" y2="5.00295" stroke="#0092F4" stroke-opacity="0.1"/>
<line x1="1170.5" y1="1024" x2="1164.5" y2="3.00295" stroke="#0092F4" stroke-opacity="0.1"/>
<line x1="367.5" y1="1026" x2="361.5" y2="5.00295" stroke="#0092F4" stroke-opacity="0.1"/>
<line x1="805.5" y1="1026" x2="799.5" y2="5.00295" stroke="#0092F4" stroke-opacity="0.1"/>
<line x1="1243.5" y1="1024" x2="1237.5" y2="3.00295" stroke="#0092F4" stroke-opacity="0.1"/>
<line x1="440.5" y1="1027" x2="434.5" y2="6.00295" stroke="#0092F4" stroke-opacity="0.1"/>
<line x1="878.5" y1="1027" x2="872.5" y2="6.00295" stroke="#0092F4" stroke-opacity="0.1"/>
<line x1="1316.5" y1="1025" x2="1310.5" y2="4.00295" stroke="#0092F4" stroke-opacity="0.1"/>
<line y1="-0.5" x2="1367.98" y2="-0.5" transform="matrix(-0.999989 0.00471212 -0.00732855 -0.999973 1370.64 862.7)" stroke="#0092F4" stroke-opacity="0.1"/>
<line y1="-0.5" x2="1367.98" y2="-0.5" transform="matrix(-0.999989 0.00471212 -0.00732855 -0.999973 1367.96 392.136)" stroke="#0092F4" stroke-opacity="0.1"/>
<line y1="-0.5" x2="1367.98" y2="-0.5" transform="matrix(-0.999989 0.00471212 -0.00732855 -0.999973 1373.32 784.272)" stroke="#0092F4" stroke-opacity="0.1"/>
<line y1="-0.5" x2="1367.98" y2="-0.5" transform="matrix(-0.999989 0.00471212 -0.00732855 -0.999973 1370.64 313.709)" stroke="#0092F4" stroke-opacity="0.1"/>
<line y1="-0.5" x2="1367.98" y2="-0.5" transform="matrix(-0.999989 0.00471212 -0.00732855 -0.999973 1373.32 705.845)" stroke="#0092F4" stroke-opacity="0.1"/>
<line y1="-0.5" x2="1367.98" y2="-0.5" transform="matrix(-0.999989 0.00471212 -0.00732855 -0.999973 1370.64 235.281)" stroke="#0092F4" stroke-opacity="0.1"/>
<line y1="-0.5" x2="1367.98" y2="-0.5" transform="matrix(-0.999989 0.00471212 -0.00732855 -0.999973 1374.66 627.418)" stroke="#0092F4" stroke-opacity="0.1"/>
<line y1="-0.5" x2="1367.98" y2="-0.5" transform="matrix(-0.999989 0.00471212 -0.00732855 -0.999973 1371.98 156.854)" stroke="#0092F4" stroke-opacity="0.1"/>
<line x1="1376" y1="1027.5" x2="6.69865" y2="1026.5" stroke="#0092F4" stroke-opacity="0.1"/>
<line y1="-0.5" x2="1367.98" y2="-0.5" transform="matrix(-0.999989 0.00471212 -0.00732855 -0.999973 1374.66 548.99)" stroke="#0092F4" stroke-opacity="0.1"/>
<line y1="-0.5" x2="1367.98" y2="-0.5" transform="matrix(-0.999989 0.00471212 -0.00732855 -0.999973 1371.98 78.4277)" stroke="#0092F4" stroke-opacity="0.1"/>
<line y1="-0.5" x2="1367.98" y2="-0.5" transform="matrix(-0.999989 0.00471212 -0.00732855 -0.999973 1376 941.127)" stroke="#0092F4" stroke-opacity="0.1"/>
<line y1="-0.5" x2="1367.98" y2="-0.5" transform="matrix(-0.999989 0.00471212 -0.00732855 -0.999973 1376 470.563)" stroke="#0092F4" stroke-opacity="0.1"/>
<line x1="1373" y1="0.5" x2="9.99898" y2="0.5" stroke="#0092F4" stroke-opacity="0.1"/>
</svg>
